<?xml version="1.0" encoding="utf-8"?>
<!-- Generator: Adobe Illustrator 23.0.2, SVG Export Plug-In . SVG Version: 6.00 Build 0)  -->
<svg version="1.1" xmlns="http://www.w3.org/2000/svg" xmlns:xlink="http://www.w3.org/1999/xlink" x="0px" y="0px"
	 viewBox="0 0 500 500" style="enable-background:new 0 0 500 500;" xml:space="preserve">
<style type="text/css">
	.st0{fill:#F0F0F0;}
	.st1{fill:#E0E0E0;}
	.st2{fill:#27DEBF;}
	.st3{opacity:0.7;fill:#FFFFFF;}
	.st4{opacity:0.3;fill:#FFFFFF;}
	.st5{opacity:0.15;}
	.st6{fill:#263238;}
	.st7{fill:#37474F;}
	.st8{fill:#455A64;}
	.st9{opacity:0.3;}
	.st10{fill:#F5F5F5;}
	.st11{fill:#FFBDA7;}
	.st12{fill:#F0997A;}
	.st13{opacity:0.4;}
	.st14{fill:#FAFAFA;}
	.st15{opacity:0.45;fill:#FFFFFF;}
	.st16{fill:#B16668;}
	.st17{opacity:0.6;fill:#263238;}
	.st18{fill:#9A4A4D;}
	.st19{fill:#FFA8A7;}
	.st20{fill:#F28F8F;}
	.st21{opacity:0.55;}
	.st22{opacity:0.45;}
	.st23{opacity:0.35;}
	.st24{opacity:0.2;}
	.st25{opacity:0.8;}
	.st26{opacity:0.1;fill:#FFFFFF;}
	.st27{opacity:0.25;}
	.st28{opacity:0.2;fill:#FFFFFF;}
</style>
<g id="Floor">
	<ellipse id="Floor_1_" class="st0" cx="244.7" cy="323.3" rx="232.6" ry="134.3"/>
</g>
<g id="Shadows">
	<path id="Shadow_12_" class="st1" d="M197.5,292.7l182.3,105.2c2.4,1.4,6.3,1.4,8.7,0l60.4-34.9c2.4-1.4,2.4-3.6,0-5L266.2,252.8
		c-2.4-1.4-6.3-1.4-8.7,0l-60.1,34.9C195.1,289.1,195.1,291.3,197.5,292.7z"/>
	<path id="Shadow_2_" class="st1" d="M26.8,302.1l64.5,37.2c2.4,1.4,6.3,1.4,8.7,0l137.6-79.4c2.4-1.4,2.4-3.6,0-5l-64.5-37.2
		c-2.4-1.4-6.3-1.4-8.7,0L26.8,297.1C24.5,298.5,24.5,300.7,26.8,302.1z"/>
	<g id="Shadows_1_">
		<path class="st1" d="M249.4,416c-2,0-3.7-1.5-4.1-3.4l-0.9-5c-2.2-0.4-4.3-0.9-6.3-1.6c0,0-0.1,0-0.2,0l-8.8,4.1
			c-0.6,0.3-1.3,0.4-2,0.4c-0.9,0-1.8-0.2-2.5-0.6l-8.8-5.1c-1.1-0.6-1.8-1.7-1.8-2.9c-0.1-1.2,0.5-2.3,1.5-3l5.3-3.8
			c-0.5-0.7-0.9-1.3-1.3-2l-11.2-0.7c-2.1-0.1-3.7-1.9-3.7-4V382c0-2.1,1.6-3.9,3.7-4l11.2-0.7c0.4-0.7,0.8-1.4,1.3-2l-5.3-3.8
			c-1-0.7-1.6-1.9-1.5-3.1c0.1-1.2,0.7-2.3,1.8-2.9l8.8-5.1c0.7-0.4,1.6-0.6,2.5-0.6c0.7,0,1.4,0.1,2.1,0.4l8.8,4.1c0,0,0.1,0,0.1,0
			c0,0,0,0,0,0c2-0.6,4.2-1.2,6.4-1.6l0.9-5c0.4-1.9,2.1-3.4,4.1-3.4h12.9c2,0,3.7,1.5,4.1,3.4l0.9,5c2.2,0.4,4.3,0.9,6.3,1.6
			c0,0,0.1,0,0.2,0l8.8-4.1c0.6-0.3,1.3-0.4,2-0.4c0.9,0,1.8,0.2,2.5,0.6l8.8,5.1c1.1,0.6,1.8,1.7,1.8,2.9c0.1,1.2-0.5,2.3-1.5,3
			l-5.3,3.8c0.5,0.7,0.9,1.3,1.3,2l11.2,0.7c2.1,0.1,3.7,1.9,3.7,4l0,6.5c0,2.1-1.6,3.9-3.7,4l-11.2,0.7c-0.4,0.7-0.8,1.4-1.3,2
			l5.3,3.8c1,0.7,1.6,1.9,1.5,3.1c-0.1,1.2-0.7,2.3-1.8,2.9l-8.8,5.1c-0.7,0.4-1.6,0.6-2.5,0.6c-0.7,0-1.4-0.1-2-0.4l-8.8-4.1
			c0,0-0.1,0-0.1,0c0,0,0,0,0,0c-2,0.6-4.2,1.2-6.4,1.6l-0.9,5c-0.4,1.9-2.1,3.4-4.1,3.4L249.4,416z M255.9,376
			c-5.1,0-9.9,1.1-13.4,3.2c-3,1.7-4.7,4-4.7,6.1c0,2.1,1.7,4.4,4.7,6.1c3.5,2,8.3,3.2,13.4,3.2c5.1,0,9.9-1.1,13.4-3.2
			c3-1.7,4.7-4,4.7-6.1c0-2.1-1.7-4.4-4.7-6.1C265.7,377.1,261,376,255.9,376z"/>
		<path class="st1" d="M166.9,363.2c-0.3,0-0.6,0-0.9-0.1l-9.8-2.3c-1-0.2-1.9-0.9-2.3-1.9c-0.5-1-0.4-2.2,0.1-3.2l1.5-3
			c-0.9-0.5-1.8-1-2.6-1.6l-8.8,1.5c-0.2,0-0.5,0.1-0.8,0.1c-1.4,0-2.7-0.6-3.4-1.6l-3.8-5.3l-0.8-0.5l0.1-2.3l0.1-0.2
			c0.1-0.2,0.2-0.5,0.3-0.7l0.1-0.1c0.5-0.7,1.2-1.3,2.1-1.6l6.8-2.2c0-0.2,0-0.4,0-0.7l-7-2.2c-1.2-0.4-2.1-1.4-2.3-2.6l-0.1-0.2
			v-0.1l0,0l0-0.3c0-0.8,0.3-1.5,0.7-2.2l3.5-4.9c0.8-1.1,2.2-1.9,3.6-1.9c0.2,0,0.4,0,0.6,0.1l9,1.5c0,0,0,0,0,0
			c0.6-0.4,1.3-0.8,2-1.3c0.2-0.1,0.3-0.2,0.5-0.3l-1.6-3.2c-0.3-0.5-0.4-1-0.3-1.5c0-1.6,1.2-3,2.9-3.4l9.4-2.3
			c0.3-0.1,0.7-0.1,1.1-0.1c1.2,0,2.4,0.4,3.1,1.2l4.1,4.3c0.9-0.1,1.8-0.1,2.8-0.1c1,0,2,0,3,0.1l3.9-4.1c0.9-0.9,2.2-1.5,3.4-1.5
			c0.3,0,0.6,0,0.9,0.1l9.8,2.3c1.5,0.4,2.5,1.5,2.7,2.9l0,0.1l0,0.4c0,0.6-0.2,1.1-0.4,1.6l-1.5,2.9c0.2,0.1,0.3,0.2,0.5,0.3
			c0.7,0.4,1.4,0.9,2.1,1.3l8.8-1.5c0.3,0,0.5-0.1,0.8-0.1c1.4,0,2.7,0.6,3.4,1.6l3.9,5.4c0.4,0.5,0.6,1.2,0.6,1.9v0.1l0,0.1
			c-0.1,1.5-1.1,2.7-2.7,3.2l-6.8,2.1c0,0.2,0,0.4,0,0.7l7,2.2c1.4,0.4,2.4,1.7,2.4,3.2c0,0.8-0.3,1.5-0.7,2.2l-3.6,5
			c-0.8,1.1-2.2,1.9-3.6,1.9c-0.2,0-0.4,0-0.6-0.1l-9-1.5c0,0,0,0,0,0c-0.8,0.5-1.6,1.1-2.5,1.6l1.6,3.2c0.5,0.9,0.5,2,0.1,2.9
			c-0.5,1-1.4,1.8-2.6,2l-9.5,2.3c-0.4,0.1-0.7,0.1-1.1,0.1c-1.2,0-2.4-0.4-3.1-1.2l-4.1-4.3c-0.9,0.1-1.9,0.1-2.9,0.1
			c-1,0-1.9,0-2.9-0.1l-3.9,4.1C169.5,362.6,168.2,363.2,166.9,363.2z M163.8,335.3c-0.1,0.1-0.2,0.2-0.2,0.3
			c-0.1,0.1-0.2,0.3-0.3,0.4c0,0.1-0.2,0.3-0.2,0.3c-0.7,1.3-0.6,2.5,0.3,3.8c0.4,0.6,1,1.2,1.7,1.7c0.4,0.3,0.8,0.5,1.2,0.8
			c2.8,1.6,6.7,2.5,10.7,2.5c2,0,4-0.2,5.9-0.7c1.8-0.4,3.4-1,4.8-1.8c0.4-0.2,0.8-0.5,1.2-0.7c0.9-0.6,1.5-1.3,2-2l0,0l0.2-0.4
			l0.1-0.2c0.4-1.1,0.3-2.2-0.6-3.3c-2.1-3-7.6-5-13.6-5c-2,0-4,0.2-5.9,0.7c-3,0.7-5.5,2-7,3.5L163.8,335.3z"/>
		<path class="st1" d="M149.1,423.4c-0.3,0-0.6,0-0.9-0.1l-9.8-2.4c-1-0.2-1.9-0.9-2.3-1.9c-0.5-1-0.4-2.2,0.1-3.2l1.5-3
			c-0.9-0.5-1.8-1-2.6-1.6l-8.8,1.5c-0.2,0-0.5,0.1-0.8,0.1c-1.4,0-2.7-0.6-3.4-1.6l-3.8-5.3l-0.8-0.5l0.2-2.4l0.1-0.3
			c0.1-0.2,0.1-0.4,0.2-0.5l0.1-0.1c0.5-0.7,1.2-1.3,2.1-1.6l6.8-2.2c0-0.2,0-0.4,0-0.7l-7-2.2c-1.2-0.4-2.1-1.4-2.3-2.6l-0.1-0.2
			v-0.1l0,0l0-0.3c0-0.8,0.3-1.5,0.7-2.2l3.5-4.9c0.8-1.1,2.2-1.9,3.6-1.9c0.2,0,0.4,0,0.6,0.1l9,1.5c0,0,0,0,0,0
			c0.6-0.4,1.3-0.8,2-1.3c0.2-0.1,0.3-0.2,0.5-0.3l-1.6-3.2c-0.2-0.5-0.4-1-0.3-1.5c0-1.6,1.2-3,2.9-3.4l9.4-2.3
			c0.4-0.1,0.7-0.1,1.1-0.1c1.2,0,2.4,0.4,3.1,1.2l4.1,4.3c0.9-0.1,1.8-0.1,2.8-0.1c1,0,2,0,3,0.1l3.9-4.1c0.9-0.9,2.2-1.5,3.4-1.5
			c0.3,0,0.6,0,0.9,0.1l9.8,2.3c1.5,0.4,2.5,1.5,2.7,3l0,0.1l0,0.4c0,0.6-0.2,1.2-0.4,1.6l-1.5,2.9c0.2,0.1,0.3,0.2,0.5,0.3
			c0.7,0.4,1.4,0.9,2.1,1.3l8.8-1.5c0.3,0,0.5-0.1,0.8-0.1c1.4,0,2.7,0.6,3.4,1.6l3.9,5.4c0.4,0.5,0.6,1.2,0.6,1.9v0.1l0,0.1
			c-0.1,1.5-1.1,2.7-2.7,3.2l-6.8,2.1c0,0.2,0,0.4,0,0.7l7,2.2c1.4,0.4,2.4,1.7,2.4,3.2c0,0.8-0.3,1.5-0.7,2.2l-3.6,5
			c-0.8,1.1-2.2,1.9-3.6,1.9c-0.2,0-0.4,0-0.6-0.1l-9-1.5c0,0,0,0,0,0c-0.8,0.5-1.6,1.1-2.5,1.6l1.6,3.2c0.5,0.9,0.5,2,0.1,2.9
			c-0.5,1-1.4,1.8-2.6,2l-9.5,2.3c-0.4,0.1-0.7,0.1-1.1,0.1c-1.2,0-2.4-0.4-3.1-1.2l-4.1-4.3c-0.9,0.1-1.9,0.1-2.8,0.1
			c-1,0-1.9,0-2.9-0.1l-3.9,4.1C151.6,422.8,150.3,423.4,149.1,423.4z M159.2,390.9c-2,0-4,0.2-5.9,0.7c-3,0.7-5.5,2-7,3.5l-0.3,0.3
			c0,0-0.2,0.2-0.2,0.3c-0.1,0.1-0.2,0.2-0.3,0.4c0,0.1-0.2,0.3-0.2,0.3c-0.7,1.3-0.6,2.5,0.3,3.8c0.4,0.6,1,1.2,1.7,1.7
			c0.4,0.3,0.8,0.5,1.2,0.8c2.8,1.6,6.7,2.5,10.7,2.5c2,0,4-0.2,5.9-0.7c1.8-0.4,3.4-1,4.8-1.8c0.4-0.2,0.8-0.5,1.2-0.7
			c0.9-0.6,1.5-1.3,2-2l0,0l0.2-0.4l0-0.1l0.1-0.1c0.4-1.1,0.3-2.2-0.6-3.3C170.7,392.9,165.2,390.9,159.2,390.9z"/>
	</g>
</g>
<g id="Robotic_Arms">
	<g id="Mechanical_arm_1_">
		<path id="XMLID_497_" class="st2" d="M461.4,202.6c2.2-2,7.3,1.7,7.3,3.9l-24.4,44l-12.1-5.8L461.4,202.6z"/>
		<path id="XMLID_439_" class="st3" d="M461.4,202.6c2.2-2,7.3,1.7,7.3,3.9l-24.4,44l-12.1-5.8L461.4,202.6z"/>
		<g id="XMLID_14627_">
			<g id="XMLID_486_">
				<path class="st2" d="M426.4,244.4c0-1.3-0.3-2.4-0.8-3.2l0.3-0.5l-1.7-0.9l0,0c-1.3-0.8-3.2-0.7-5.3,0.5
					c-4,2.4-7.3,8.2-7.2,12.9c0,2.4,0.9,4.1,2.4,4.8l0,0l1.7,0.9l0.3-0.6c0.9,0,2-0.4,3.1-1C423.3,254.8,426.5,249.1,426.4,244.4z"
					/>
				<path class="st4" d="M426.4,244.4c0-1.3-0.3-2.4-0.8-3.2l0.3-0.5l-1.7-0.9l0,0c-1.3-0.8-3.2-0.7-5.3,0.5
					c-4,2.4-7.3,8.2-7.2,12.9c0,2.4,0.9,4.1,2.4,4.8l0,0l1.7,0.9l0.3-0.6c0.9,0,2-0.4,3.1-1C423.3,254.8,426.5,249.1,426.4,244.4z"
					/>
				<path id="XMLID_493_" class="st2" d="M420.9,241.2c-4,2.4-7.3,8.2-7.2,12.9c0.1,4.7,3.4,6.6,7.4,4.2c4-2.4,7.3-8.2,7.2-12.9
					C428.2,240.7,424.9,238.8,420.9,241.2z"/>
				<path id="XMLID_437_" class="st5" d="M420.9,241.2c-4,2.4-7.3,8.2-7.2,12.9c0.1,4.7,3.4,6.6,7.4,4.2c4-2.4,7.3-8.2,7.2-12.9
					C428.2,240.7,424.9,238.8,420.9,241.2z"/>
			</g>
			<path class="st6" d="M461.4,303.7L461.4,303.7l0-8.3h-6.2c-0.6-0.4-1.3-0.9-2.1-1.3c-11.1-6.4-29-6.4-40.1,0
				c-0.7,0.4-1.4,0.9-2.1,1.3h-6.2v8.3h0c-0.1,3.4,2.6,6.7,8.3,10c11.1,6.4,29.1,6.4,40.1,0C458.7,310.4,461.5,307,461.4,303.7z"/>
			<path id="XMLID_438_" class="st7" d="M413,306.9c-11.1-6.4-11.1-16.8,0-23.2c11.1-6.4,29.1-6.4,40.1,0c11.1,6.4,11.1,16.8,0,23.2
				C442,313.3,424,313.3,413,306.9z"/>
			<path class="st8" d="M451.5,295.4C451.5,295.4,451.5,295.4,451.5,295.4v-38.1c0,0,0,0,0,0c0-10.2-8.3-18.5-18.5-18.5
				c-10.2,0-18.5,8.3-18.5,18.5v38.2h0c0,2.7,1.8,5.4,5.4,7.5c7.3,4.1,19,4.1,26.2,0C449.7,300.8,451.5,298.1,451.5,295.4
				L451.5,295.4L451.5,295.4z"/>
			<g id="XMLID_14634_">
				<path class="st2" d="M449,257.1c0-1.3-0.3-2.4-0.7-3.2l0.3-0.5l-1.7-1l0,0c-1.3-0.8-3.2-0.7-5.3,0.5c-4.1,2.4-7.4,8.1-7.3,12.8
					c0,2.4,0.9,4.1,2.3,4.8l0,0l1.6,1l0.3-0.6c0.9,0,2-0.4,3.1-1C445.8,267.5,449,261.8,449,257.1z"/>
				<path class="st4" d="M449,257.1c0-1.3-0.3-2.4-0.7-3.2l0.3-0.5l-1.7-1l0,0c-1.3-0.8-3.2-0.7-5.3,0.5c-4.1,2.4-7.4,8.1-7.3,12.8
					c0,2.4,0.9,4.1,2.3,4.8l0,0l1.6,1l0.3-0.6c0.9,0,2-0.4,3.1-1C445.8,267.5,449,261.8,449,257.1z"/>
				<path id="XMLID_14637_" class="st2" d="M443.5,253.9c-4.1,2.4-7.4,8.1-7.3,12.8c0,4.7,3.3,6.6,7.4,4.2c4.1-2.4,7.4-8.1,7.3-12.8
					S447.6,251.6,443.5,253.9z"/>
				<path id="XMLID_420_" class="st3" d="M443.5,253.9c-4.1,2.4-7.4,8.1-7.3,12.8c0,4.7,3.3,6.6,7.4,4.2c4.1-2.4,7.4-8.1,7.3-12.8
					S447.6,251.6,443.5,253.9z"/>
				<path id="XMLID_14636_" class="st2" d="M440,264.5c0,0.6,0.1,1,0.3,1.4c0.5,1.2,1.8,1.4,3.2,0.6c1.9-1.1,3.5-3.9,3.5-6.1
					c0-1.5-0.7-2.3-1.7-2.5c-0.5-0.1-1.2,0.1-1.9,0.5C441.6,259.5,440,262.2,440,264.5z"/>
				<path id="XMLID_436_" class="st8" d="M440,264.5c0,0.6,0.1,1,0.3,1.4c0.5,0.1,1.2-0.1,1.9-0.5c1.9-1.1,3.5-3.9,3.5-6.1
					c0-0.6-0.1-1-0.3-1.4c-0.5-0.1-1.2,0.1-1.9,0.5C441.6,259.5,440,262.2,440,264.5z"/>
			</g>
			<g id="XMLID_434_">
				<path id="XMLID_14633_" class="st2" d="M439.6,284.2c0-1.6,1.1-3.5,2.5-4.3c0.7-0.4,1.3-0.4,1.8-0.1l0,0l1.1,0.7l-0.5,0.8
					c0,0,0,0.1,0,0.1c0,1.6-1.1,3.5-2.5,4.3c0,0,0,0,0,0l-0.5,0.9l-1.2-0.7c0,0,0,0,0,0l0,0l0,0C439.9,285.5,439.6,285,439.6,284.2z
					"/>
				<path id="XMLID_357_" class="st9" d="M439.6,284.2c0-1.6,1.1-3.5,2.5-4.3c0.7-0.4,1.3-0.4,1.8-0.1l0,0l1.1,0.7l-0.5,0.8
					c0,0,0,0.1,0,0.1c0,1.6-1.1,3.5-2.5,4.3c0,0,0,0,0,0l-0.5,0.9l-1.2-0.7c0,0,0,0,0,0l0,0l0,0C439.9,285.5,439.6,285,439.6,284.2z
					"/>
				<path id="XMLID_435_" class="st2" d="M445.8,282.1c0,1.6-1.1,3.5-2.5,4.3c-1.4,0.8-2.5,0.2-2.5-1.4c0-1.6,1.1-3.5,2.5-4.3
					C444.7,279.9,445.8,280.5,445.8,282.1z"/>
			</g>
			<g id="XMLID_14628_">
				<path id="XMLID_433_" class="st1" d="M439.6,294.8c0-1.6,1.1-3.5,2.5-4.3c0.7-0.4,1.3-0.4,1.8-0.1l0,0l1.1,0.7l-0.5,0.8
					c0,0,0,0.1,0,0.1c0,1.6-1.1,3.5-2.5,4.3c0,0,0,0,0,0l-0.5,0.9l-1.2-0.7c0,0,0,0,0,0l0,0l0,0
					C439.9,296.1,439.6,295.6,439.6,294.8z"/>
				<path id="XMLID_14629_" class="st10" d="M445.8,292.7c0,1.6-1.1,3.5-2.5,4.3c-1.4,0.8-2.5,0.2-2.5-1.4c0-1.6,1.1-3.5,2.5-4.3
					S445.8,291.1,445.8,292.7z"/>
			</g>
		</g>
		<g id="XMLID_261_">
			<g id="XMLID_373_">
				<polygon id="XMLID_418_" class="st6" points="423.2,203.6 420.1,219.8 415.6,217.3 418.8,201 				"/>
				<polygon id="XMLID_398_" class="st8" points="407.5,226.3 420.3,218.7 415.9,215.9 403,223.7 				"/>
				<polygon id="XMLID_14621_" class="st6" points="403,226.2 407.5,228.7 407.5,226.3 403,223.7 				"/>
			</g>
			<polygon class="st7" points="425.8,202.1 423.2,203.6 420.3,218.7 407.5,226.3 407.5,228.7 422.4,219.8 422.9,217.1 422.9,217.1 
							"/>
			<g id="XMLID_14614_">
				<path id="XMLID_14619_" class="st2" d="M462.8,182c2.2-1.8,4.3-2.3,6.1-1.6l0,0l10.7,5.1l-0.2,0.7c0.7,0.9,1.2,2.1,1.5,3.6
					c0.9,5.5-1.7,12.8-6,16.4c-1.2,1-2.3,1.6-3.4,1.8l-0.3,0.7l-10.7-5.1l0,0c-1.8-0.6-3.2-2.4-3.6-5.2
					C455.9,192.9,458.5,185.6,462.8,182z"/>
				<path id="XMLID_494_" class="st5" d="M462.8,182c2.2-1.8,4.3-2.3,6.1-1.6l0,0l10.7,5.1l-0.2,0.7c0.7,0.9,1.2,2.1,1.5,3.6
					c0.9,5.5-1.7,12.8-6,16.4c-1.2,1-2.3,1.6-3.4,1.8l-0.3,0.7l-10.7-5.1l0,0c-1.8-0.6-3.2-2.4-3.6-5.2
					C455.9,192.9,458.5,185.6,462.8,182z"/>
				<path id="XMLID_14618_" class="st2" d="M473.8,187.2c-4.3,3.6-7,10.9-6,16.4c0.9,5.5,5.2,7,9.5,3.5c4.3-3.6,7-10.9,6-16.4
					C482.3,185.2,478,183.6,473.8,187.2z"/>
				<path id="XMLID_14617_" class="st2" d="M471.8,200.2c0.1,0.7,0.3,1.2,0.6,1.6c0.8,1.2,2.4,1.3,3.9,0.1c2-1.7,3.3-5.2,2.9-7.8
					c-0.3-1.7-1.2-2.6-2.4-2.6c-0.7,0-1.4,0.3-2.1,0.9C472.6,194.1,471.3,197.6,471.8,200.2z"/>
				<path id="XMLID_495_" class="st9" d="M471.8,200.2c0.1,0.7,0.3,1.2,0.6,1.6c0.8,1.2,2.4,1.3,3.9,0.1c2-1.7,3.3-5.2,2.9-7.8
					c-0.3-1.7-1.2-2.6-2.4-2.6c-0.7,0-1.4,0.3-2.1,0.9C472.6,194.1,471.3,197.6,471.8,200.2z"/>
				<path id="XMLID_14616_" class="st8" d="M471.8,200.2c0.1,0.7,0.3,1.2,0.6,1.6c0.7,0,1.4-0.3,2.1-0.9c2-1.7,3.3-5.2,2.9-7.8
					c-0.1-0.7-0.3-1.2-0.6-1.6c-0.7,0-1.4,0.3-2.1,0.9C472.6,194.1,471.3,197.6,471.8,200.2z"/>
			</g>
			<path id="XMLID_14611_" class="st2" d="M428.2,200.5l35.2-2.8c2-0.3,3.3-2.2,3-4.1c-0.3-2-2.2-3.3-4.1-3c0,0-0.1,0-0.1,0
				l-34.9,4.5c-1.5,0.3-2.5,1.7-2.2,3.2C425.4,199.8,426.8,200.7,428.2,200.5z"/>
			<path id="XMLID_496_" class="st3" d="M428.2,200.5l35.2-2.8c2-0.3,3.3-2.2,3-4.1c-0.3-2-2.2-3.3-4.1-3c0,0-0.1,0-0.1,0l-34.9,4.5
				c-1.5,0.3-2.5,1.7-2.2,3.2C425.4,199.8,426.8,200.7,428.2,200.5z"/>
			<g id="XMLID_14605_">
				<path id="XMLID_14609_" class="st2" d="M419.5,188.2c1.5-1.3,3.1-1.6,4.3-1.1l0,0l7.6,3.9l-0.2,0.5c0.5,0.6,0.9,1.5,1.1,2.6
					c0.7,3.9-1.2,9.1-4.3,11.6c-0.8,0.7-1.7,1.1-2.4,1.3l-0.2,0.5l-7.6-3.9l0,0c-1.3-0.4-2.2-1.7-2.6-3.7
					C414.5,196,416.4,190.8,419.5,188.2z"/>
				<path id="XMLID_553_" class="st5" d="M419.5,188.2c1.5-1.3,3.1-1.6,4.3-1.1l0,0l7.6,3.9l-0.2,0.5c0.5,0.6,0.9,1.5,1.1,2.6
					c0.7,3.9-1.2,9.1-4.3,11.6c-0.8,0.7-1.7,1.1-2.4,1.3l-0.2,0.5l-7.6-3.9l0,0c-1.3-0.4-2.2-1.7-2.6-3.7
					C414.5,196,416.4,190.8,419.5,188.2z"/>
				<path id="XMLID_14608_" class="st2" d="M427.2,192.2c-3,2.5-5,7.7-4.3,11.6c0.7,3.9,3.7,5,6.7,2.5c3-2.5,5-7.7,4.3-11.6
					C433.2,190.8,430.2,189.6,427.2,192.2z"/>
				<path id="XMLID_14607_" class="st2" d="M425.8,201.4c0.1,0.5,0.2,0.9,0.4,1.1c0.6,0.9,1.7,0.9,2.8,0c1.4-1.2,2.4-3.7,2-5.6
					c-0.2-1.2-0.9-1.9-1.7-1.8c-0.5,0-1,0.2-1.5,0.6C426.4,197.1,425.4,199.6,425.8,201.4z"/>
				<path id="XMLID_592_" class="st9" d="M425.8,201.4c0.1,0.5,0.2,0.9,0.4,1.1c0.6,0.9,1.7,0.9,2.8,0c1.4-1.2,2.4-3.7,2-5.6
					c-0.2-1.2-0.9-1.9-1.7-1.8c-0.5,0-1,0.2-1.5,0.6C426.4,197.1,425.4,199.6,425.8,201.4z"/>
				<path id="XMLID_14606_" class="st8" d="M425.8,201.4c0.1,0.5,0.2,0.9,0.4,1.1c0.5,0,1-0.2,1.5-0.6c1.4-1.2,2.4-3.7,2-5.6
					c-0.1-0.5-0.2-0.9-0.4-1.1c-0.5,0-1,0.2-1.5,0.6C426.4,197.1,425.4,199.6,425.8,201.4z"/>
			</g>
			<g id="XMLID_266_">
				<polygon id="XMLID_356_" class="st6" points="423.7,193.4 419.2,190.8 414.6,179.6 418.2,178.8 				"/>
				<g>
					<polygon class="st7" points="423.7,193.4 425.4,191.5 420,178.1 420,178.1 418.9,175.3 402.6,184.3 402.6,187.5 417.9,179.3 
											"/>
				</g>
				<polygon id="XMLID_269_" class="st6" points="402.6,187.5 395.9,183.6 395.9,180.4 402.6,184.3 				"/>
				<polygon id="XMLID_268_" class="st8" points="395.9,180.4 412.2,171.5 418.9,175.3 402.6,184.3 				"/>
			</g>
		</g>
	</g>
	<g id="Mechanical_arm">
		<path id="XMLID_1027_" class="st2" d="M324.7,130.5c1.5-2.6,7.5-0.5,8.1,1.5l-10.2,49.3l-13.2-1.9L324.7,130.5z"/>
		<path id="XMLID_1026_" class="st3" d="M324.7,130.5c1.5-2.6,7.5-0.5,8.1,1.5l-10.2,49.3l-13.2-1.9L324.7,130.5z"/>
		<g id="XMLID_945_">
			<g id="XMLID_1020_">
				<path class="st2" d="M308.6,176.3c0-1.3-0.3-2.4-0.8-3.2l0.3-0.5l-1.7-0.9l0,0c-1.3-0.8-3.2-0.7-5.3,0.5
					c-4,2.4-7.3,8.2-7.2,12.9c0,2.4,0.9,4.1,2.4,4.8l0,0l1.7,0.9l0.3-0.6c0.9,0,2-0.4,3.1-1C305.5,186.8,308.7,181,308.6,176.3z"/>
				<path class="st4" d="M308.6,176.3c0-1.3-0.3-2.4-0.8-3.2l0.3-0.5l-1.7-0.9l0,0c-1.3-0.8-3.2-0.7-5.3,0.5
					c-4,2.4-7.3,8.2-7.2,12.9c0,2.4,0.9,4.1,2.4,4.8l0,0l1.7,0.9l0.3-0.6c0.9,0,2-0.4,3.1-1C305.5,186.8,308.7,181,308.6,176.3z"/>
				<path id="XMLID_1025_" class="st2" d="M303.1,173.2c-4,2.4-7.3,8.2-7.2,12.9c0.1,4.7,3.4,6.6,7.4,4.2c4-2.4,7.3-8.2,7.2-12.9
					C310.4,172.7,307.1,170.8,303.1,173.2z"/>
				<path id="XMLID_1023_" class="st5" d="M303.1,173.2c-4,2.4-7.3,8.2-7.2,12.9c0.1,4.7,3.4,6.6,7.4,4.2c4-2.4,7.3-8.2,7.2-12.9
					C310.4,172.7,307.1,170.8,303.1,173.2z"/>
			</g>
			<path class="st6" d="M343.6,235.6L343.6,235.6l0-8.3h-6.2c-0.6-0.4-1.3-0.9-2.1-1.3c-11.1-6.4-29-6.4-40.1,0
				c-0.7,0.4-1.4,0.9-2.1,1.3h-6.2v8.3h0c-0.1,3.4,2.6,6.7,8.3,10c11.1,6.4,29.1,6.4,40.1,0C340.9,242.4,343.7,239,343.6,235.6z"/>
			<path id="XMLID_1019_" class="st7" d="M295.2,238.9c-11.1-6.4-11.1-16.8,0-23.2c11.1-6.4,29.1-6.4,40.1,0
				c11.1,6.4,11.1,16.8,0,23.2C324.2,245.3,306.2,245.3,295.2,238.9z"/>
			<path class="st8" d="M333.7,227.3C333.7,227.3,333.7,227.3,333.7,227.3v-38.1c0,0,0,0,0,0c0-10.2-8.3-18.5-18.5-18.5
				c-10.2,0-18.5,8.3-18.5,18.5v38.2h0c0,2.7,1.8,5.4,5.4,7.5c7.3,4.1,19,4.1,26.2,0C331.9,232.8,333.7,230.1,333.7,227.3
				L333.7,227.3L333.7,227.3z"/>
			<g id="XMLID_1010_">
				<path class="st2" d="M331.2,189.1c0-1.3-0.3-2.4-0.7-3.2l0.3-0.5l-1.7-1l0,0c-1.3-0.8-3.2-0.7-5.3,0.5
					c-4.1,2.4-7.4,8.1-7.3,12.8c0,2.4,0.9,4.1,2.3,4.8l0,0l1.6,1l0.3-0.6c0.9,0,2-0.4,3.1-1C328,199.5,331.2,193.8,331.2,189.1z"/>
				<path class="st4" d="M331.2,189.1c0-1.3-0.3-2.4-0.7-3.2l0.3-0.5l-1.7-1l0,0c-1.3-0.8-3.2-0.7-5.3,0.5
					c-4.1,2.4-7.4,8.1-7.3,12.8c0,2.4,0.9,4.1,2.3,4.8l0,0l1.6,1l0.3-0.6c0.9,0,2-0.4,3.1-1C328,199.5,331.2,193.8,331.2,189.1z"/>
				<path id="XMLID_1018_" class="st2" d="M325.7,185.9c-4.1,2.4-7.4,8.1-7.3,12.8c0,4.7,3.3,6.6,7.4,4.2c4.1-2.4,7.4-8.1,7.3-12.8
					C333.1,185.5,329.8,183.6,325.7,185.9z"/>
				<path id="XMLID_1017_" class="st3" d="M325.7,185.9c-4.1,2.4-7.4,8.1-7.3,12.8c0,4.7,3.3,6.6,7.4,4.2c4.1-2.4,7.4-8.1,7.3-12.8
					C333.1,185.5,329.8,183.6,325.7,185.9z"/>
				<path id="XMLID_1016_" class="st2" d="M322.2,196.5c0,0.6,0.1,1,0.3,1.4c0.5,1.2,1.8,1.4,3.2,0.6c1.9-1.1,3.5-3.9,3.5-6.1
					c0-1.5-0.7-2.3-1.7-2.5c-0.5-0.1-1.2,0.1-1.9,0.5C323.8,191.5,322.2,194.2,322.2,196.5z"/>
				<path id="XMLID_1013_" class="st8" d="M322.2,196.5c0,0.6,0.1,1,0.3,1.4c0.5,0.1,1.2-0.1,1.9-0.5c1.9-1.1,3.5-3.9,3.5-6.1
					c0-0.6-0.1-1-0.3-1.4c-0.5-0.1-1.2,0.1-1.9,0.5C323.8,191.5,322.2,194.2,322.2,196.5z"/>
			</g>
			<g id="XMLID_1003_">
				<path id="XMLID_1009_" class="st2" d="M321.8,216.2c0-1.6,1.1-3.5,2.5-4.3c0.7-0.4,1.3-0.4,1.8-0.1l0,0l1.1,0.7l-0.5,0.8
					c0,0,0,0.1,0,0.1c0,1.6-1.1,3.5-2.5,4.3c0,0,0,0,0,0l-0.5,0.9l-1.2-0.7c0,0,0,0,0,0l0,0l0,0C322.1,217.5,321.8,217,321.8,216.2z
					"/>
				<path id="XMLID_1008_" class="st9" d="M321.8,216.2c0-1.6,1.1-3.5,2.5-4.3c0.7-0.4,1.3-0.4,1.8-0.1l0,0l1.1,0.7l-0.5,0.8
					c0,0,0,0.1,0,0.1c0,1.6-1.1,3.5-2.5,4.3c0,0,0,0,0,0l-0.5,0.9l-1.2-0.7c0,0,0,0,0,0l0,0l0,0C322.1,217.5,321.8,217,321.8,216.2z
					"/>
				<path id="XMLID_1007_" class="st2" d="M328,214.1c0,1.6-1.1,3.5-2.5,4.3c-1.4,0.8-2.5,0.2-2.5-1.4c0-1.6,1.1-3.5,2.5-4.3
					C326.9,211.9,328,212.5,328,214.1z"/>
			</g>
			<g id="XMLID_946_">
				<path id="XMLID_999_" class="st1" d="M321.8,226.8c0-1.6,1.1-3.5,2.5-4.3c0.7-0.4,1.3-0.4,1.8-0.1l0,0l1.1,0.7l-0.5,0.8
					c0,0,0,0.1,0,0.1c0,1.6-1.1,3.5-2.5,4.3c0,0,0,0,0,0l-0.5,0.9l-1.2-0.7c0,0,0,0,0,0l0,0l0,0
					C322.1,228.1,321.8,227.5,321.8,226.8z"/>
				<path id="XMLID_991_" class="st10" d="M328,224.7c0,1.6-1.1,3.5-2.5,4.3c-1.4,0.8-2.5,0.2-2.5-1.4c0-1.6,1.1-3.5,2.5-4.3
					C326.9,222.5,328,223.1,328,224.7z"/>
			</g>
		</g>
		<g id="XMLID_355_">
			<g id="XMLID_14577_">
				<polygon id="XMLID_14581_" class="st6" points="288.6,133.3 288.6,150.7 284.8,148.5 284.8,131.2 				"/>
				
					<rect id="XMLID_14580_" x="275.4" y="154" transform="matrix(0.4998 -0.8662 0.8662 0.4998 6.2673 323.1681)" class="st8" width="15.1" height="4.3"/>
				<polygon class="st7" points="288.6,133.3 288.6,150.7 281,163.8 282.2,166.1 290.8,152 290.8,132.1 				"/>
				<polygon id="XMLID_14578_" class="st8" points="282.2,166.1 278.4,163.9 277.3,161.6 281,163.8 				"/>
			</g>
			<g id="XMLID_920_">
				<path id="XMLID_926_" class="st2" d="M326,110.3c2.2-1.8,4.3-2.3,6.1-1.6l0,0l10.7,5.1l-0.2,0.7c0.7,0.9,1.2,2.1,1.5,3.6
					c0.9,5.5-1.7,12.8-6,16.4c-1.2,1-2.3,1.6-3.4,1.8l-0.3,0.7l-10.7-5.1l0,0c-1.8-0.6-3.2-2.4-3.6-5.2
					C319.1,121.2,321.8,113.9,326,110.3z"/>
				<path id="XMLID_925_" class="st5" d="M326,110.3c2.2-1.8,4.3-2.3,6.1-1.6l0,0l10.7,5.1l-0.2,0.7c0.7,0.9,1.2,2.1,1.5,3.6
					c0.9,5.5-1.7,12.8-6,16.4c-1.2,1-2.3,1.6-3.4,1.8l-0.3,0.7l-10.7-5.1l0,0c-1.8-0.6-3.2-2.4-3.6-5.2
					C319.1,121.2,321.8,113.9,326,110.3z"/>
				<path id="XMLID_924_" class="st2" d="M337,115.5c-4.3,3.6-7,10.9-6,16.4c0.9,5.5,5.2,7,9.5,3.5c4.3-3.6,7-10.9,6-16.4
					C345.5,113.5,341.3,111.9,337,115.5z"/>
				<path id="XMLID_923_" class="st2" d="M335,128.5c0.1,0.7,0.3,1.2,0.6,1.6c0.8,1.2,2.4,1.3,3.9,0.1c2-1.7,3.3-5.2,2.9-7.8
					c-0.3-1.7-1.2-2.6-2.4-2.6c-0.7,0-1.4,0.3-2.1,0.9C335.8,122.4,334.5,125.9,335,128.5z"/>
				<path id="XMLID_922_" class="st9" d="M335,128.5c0.1,0.7,0.3,1.2,0.6,1.6c0.8,1.2,2.4,1.3,3.9,0.1c2-1.7,3.3-5.2,2.9-7.8
					c-0.3-1.7-1.2-2.6-2.4-2.6c-0.7,0-1.4,0.3-2.1,0.9C335.8,122.4,334.5,125.9,335,128.5z"/>
				<path id="XMLID_921_" class="st8" d="M335,128.5c0.1,0.7,0.3,1.2,0.6,1.6c0.7,0,1.4-0.3,2.1-0.9c2-1.7,3.3-5.2,2.9-7.8
					c-0.1-0.7-0.3-1.2-0.6-1.6c-0.7,0-1.4,0.3-2.1,0.9C335.8,122.4,334.5,125.9,335,128.5z"/>
			</g>
			<path id="XMLID_919_" class="st2" d="M291.5,128.8l35.2-2.8c2-0.3,3.3-2.2,3-4.1c-0.3-2-2.2-3.3-4.1-3c0,0-0.1,0-0.1,0l-34.9,4.5
				c-1.5,0.3-2.5,1.7-2.2,3.2C288.6,128.1,290,129,291.5,128.8z"/>
			<path id="XMLID_918_" class="st3" d="M291.5,128.8l35.2-2.8c2-0.3,3.3-2.2,3-4.1c-0.3-2-2.2-3.3-4.1-3c0,0-0.1,0-0.1,0l-34.9,4.5
				c-1.5,0.3-2.5,1.7-2.2,3.2C288.6,128.1,290,129,291.5,128.8z"/>
			<g id="XMLID_596_">
				<path id="XMLID_917_" class="st2" d="M282.7,116.5c1.5-1.3,3.1-1.6,4.3-1.1l0,0l7.6,3.9l-0.2,0.5c0.5,0.6,0.9,1.5,1.1,2.6
					c0.7,3.9-1.2,9.1-4.3,11.6c-0.8,0.7-1.7,1.1-2.4,1.3l-0.2,0.5l-7.6-3.9l0,0c-1.3-0.4-2.2-1.7-2.6-3.7
					C277.7,124.3,279.6,119.1,282.7,116.5z"/>
				<path id="XMLID_901_" class="st5" d="M282.7,116.5c1.5-1.3,3.1-1.6,4.3-1.1l0,0l7.6,3.9l-0.2,0.5c0.5,0.6,0.9,1.5,1.1,2.6
					c0.7,3.9-1.2,9.1-4.3,11.6c-0.8,0.7-1.7,1.1-2.4,1.3l-0.2,0.5l-7.6-3.9l0,0c-1.3-0.4-2.2-1.7-2.6-3.7
					C277.7,124.3,279.6,119.1,282.7,116.5z"/>
				<path id="XMLID_603_" class="st2" d="M290.4,120.5c-3,2.5-5,7.7-4.3,11.6c0.7,3.9,3.7,5,6.7,2.5c3-2.5,5-7.7,4.3-11.6
					C296.5,119.1,293.4,118,290.4,120.5z"/>
				<path id="XMLID_600_" class="st2" d="M289,129.7c0.1,0.5,0.2,0.9,0.4,1.1c0.6,0.9,1.7,0.9,2.8,0c1.4-1.2,2.4-3.7,2-5.6
					c-0.2-1.2-0.9-1.9-1.7-1.8c-0.5,0-1,0.2-1.5,0.6C289.6,125.4,288.7,127.9,289,129.7z"/>
				<path id="XMLID_598_" class="st9" d="M289,129.7c0.1,0.5,0.2,0.9,0.4,1.1c0.6,0.9,1.7,0.9,2.8,0c1.4-1.2,2.4-3.7,2-5.6
					c-0.2-1.2-0.9-1.9-1.7-1.8c-0.5,0-1,0.2-1.5,0.6C289.6,125.4,288.7,127.9,289,129.7z"/>
				<path id="XMLID_597_" class="st8" d="M289,129.7c0.1,0.5,0.2,0.9,0.4,1.1c0.5,0,1-0.2,1.5-0.6c1.4-1.2,2.4-3.7,2-5.6
					c-0.1-0.5-0.2-0.9-0.4-1.1c-0.5,0-1,0.2-1.5,0.6C289.6,125.4,288.7,127.9,289,129.7z"/>
			</g>
			<g id="XMLID_347_">
				<polygon id="XMLID_14565_" class="st8" points="284.8,126.8 281,124.6 262.2,126.8 266,129 				"/>
				<polygon id="XMLID_14563_" class="st6" points="266,129 262.2,144.2 258.4,142 262.2,126.8 				"/>
				<polygon class="st7" points="284.8,129.5 284.8,126.8 266,129 262.2,144.2 264.8,144.2 267.9,131.5 				"/>
			</g>
		</g>
	</g>
</g>
<g id="Character_3_1_">
	<g id="Character_3_">
		<path class="st2" d="M378,166.8c0,0.4-1.3,1.2-1.3,1.2l0.4-2.4L378,166.8z"/>
		<path class="st9" d="M378,166.8c0,0.4-1.3,1.2-1.3,1.2l0.4-2.4L378,166.8z"/>
		<g>
			<path id="XMLID_6079_" class="st11" d="M360.8,183.7c-3.8,1.3-4.7,1.5-7.3,5.6c-2.5,3.9-5.1,11.1-7.4,16.9
				c-4.2-1.2-13-3.2-15.9-4.9c-2.9-1.7-2.6-2.9-3.8-3.9c-1.4-1.3-2.8-4.3-3.9-2.6c-0.8,1.1,0.8,1.9,0.7,3.3
				c-0.1,1.4-4.4-1.9-6.2-3.2c-1.2-0.8-3.9,1.8-2.8,4.6c1,2.5,2.5,4.1,5.4,5.3c3,1.3,4.5,1.9,8.2,3.6c3.9,1.7,19.9,8.9,21.5,7.9
				c3.6-1.8,6.9-13,9.1-17.8C360.6,193.5,359.2,188.5,360.8,183.7z"/>
			<path id="XMLID_6078_" class="st7" d="M361.7,183.3c-1.6,2.1-1,1.3-1.5,4.6c-0.4,2.7-6,28.2-11,29.2c-2.2,0.5-18.2-6.8-22.1-9
				c1.3-1.9,2.6-4.3,3.1-6.7c4.6,1.8,12.6,3.6,15.5,4.5c1.3-3.7,3-7.5,4.5-11.3C353.1,187.4,354.8,182.4,361.7,183.3z"/>
		</g>
		<g id="XMLID_6070_">
			<rect id="XMLID_6077_" x="377.1" y="298.9" class="st12" width="6.2" height="10.7"/>
			<polygon id="XMLID_6076_" class="st12" points="360.2,302.9 353.5,303.2 353.1,290.9 360.8,290.6 			"/>
			<path id="XMLID_6075_" class="st2" d="M382.6,226.4c0,5.7,0.4,38.6,0.4,38.6c0.1,1.6,1.7,4.5,1.8,10.4c0.2,8.5-1.1,28.6-1.1,28.6
				s-2.9,1.7-6.6,0.1c0,0-4.7-28.4-5.7-36.8c-0.9-7.4-3.6-26.6-3.6-26.6l-4,25c0,0,0.7,4,0.3,9c-0.3,3.9-3.2,23.3-3.2,23.3
				s-3.9,1.4-7.9,0.1c0,0-0.6-30.2-0.7-33.8c-0.1-4.1,1.7-39.1,1.7-39.1L382.6,226.4z"/>
			<path id="XMLID_6074_" class="st13" d="M382.6,226.4c0,5.7,0.4,38.6,0.4,38.6c0.1,1.6,1.7,4.5,1.8,10.4
				c0.2,8.5-1.1,28.6-1.1,28.6s-2.9,1.7-6.6,0.1c0,0-4.7-28.4-5.7-36.8c-0.9-7.4-3.6-26.6-3.6-26.6l-4,25c0,0,0.7,4,0.3,9
				c-0.3,3.9-3.2,23.3-3.2,23.3s-3.9,1.4-7.9,0.1c0,0-0.6-30.2-0.7-33.8c-0.1-4.1,1.7-39.1,1.7-39.1L382.6,226.4z"/>
			<path id="XMLID_6073_" class="st6" d="M377.1,306.5c0,0,0-0.9,0-0.9c-0.3,0-0.5,0.3-0.7,1.1c-0.1,0.6-0.2,1-0.4,1.8
				c-0.3,1.2-0.5,1.9-1.1,3.2c-0.9,2.2-1.6,3-3.6,5.5c-0.5,0.6-1.6,1.6-1.9,2.2c-0.4,0.7-0.5,2.5,0.1,3c2.3,1.6,5.9,1.6,8.4,0.9
				c1.9-0.6,3.3-2.1,3.7-4.1c0.1-0.6,0.1-1.2,0.1-1.7c0.2-1.3,0.8-2.5,1.6-3.6c0.4-0.6,0.9-1.3,1.2-2c0.5-1.3,0.1-2.7-0.2-4
				c-0.3-1.1-0.6-2.3-1-2.2c0,0.1,0,0.7,0,0.7c-0.5,0.5-1.7,1-3.1,1.1C379.3,307.4,377.1,307.2,377.1,306.5z"/>
			<path id="XMLID_6072_" class="st6" d="M353.4,301.1c-0.4,0-0.6,0.5-1.4,1.4c-0.9,1-2.5,2.1-4,2.9c-2.5,1.3-7.5,3.2-9.7,4.2
				c-1.4,0.6-1.3,2.3,0.1,3.3c1.4,1,4.9,1.7,9.1,0.7c2.3-0.5,5.3-2.6,7.1-2.5c1.9,0.1,5.4,0.1,6.8-0.9c1.4-1,0.8-3,0.4-4.8
				c-0.4-1.9-0.9-4.9-1.5-4.8l0,0.7c-0.8,1.2-5.1,1.7-6.9,0.8L353.4,301.1z"/>
			<path id="XMLID_6071_" class="st5" d="M367.8,240.7c0,0-5.3-1.7-8.8-5.1c0,0,1.6,3,6.3,5.8l-1.1,21.9L367.8,240.7z"/>
		</g>
		<g id="XMLID_6065_">
			<path id="XMLID_6069_" class="st8" d="M372.4,183.2c1.3,0.3,4.3,0.7,6.5,1.3c1.6,0.5,2.3,2.5,2.7,4c1.1,4.8,1.3,15,1.3,15
				l0.1,23.6c-4.1,3-20.9,4.5-29.5-1.8c0,0,1.1-28.1,1.1-32.5c0-4.4,2.4-9.6,9.1-10L372.4,183.2z"/>
			<path class="st2" d="M373.2,183.3L373.2,183.3c0.9,0.2,1.5,1.2,1.1,2.1c-0.7,1.8-2,3.9-3.6,5.6c-2.4,2.8-7.6,5-7.6,5
				s-2.6-2.9-2.1-6.2s1.8-6,2.8-6.8c0.3-0.3,0.9-0.4,0.9-0.4v-0.4c0,0-2.6-0.3-4.3,0.5s-4.8,2.1-5.8,7.5c-1,5.4-1.8,35.6-1.8,35.6
				s10.4,9.4,30.8,2.5v-24.9c0,0,0.4-11.6-2.7-19.2l0,0l-7.5-1.4L373.2,183.3z"/>
			<path class="st14" d="M353.1,213.3c1.7,3,9.5,4.8,16.2,4.9c6.7,0.1,12.3-1.8,14.2-3.6v-2.9c-1.9,1.8-7.5,3.7-14.2,3.6
				c-6.7-0.1-14.4-1.9-16.1-4.9L353.1,213.3z"/>
			<path class="st14" d="M383.5,220c-1.9,1.8-7.5,3.7-14.2,3.6c-6.7-0.1-14.7-2-16.4-5l0.1-2.9c1.7,3,9.5,4.9,16.3,5
				c6.7,0.1,12.3-1.8,14.2-3.6V220z"/>
			<path class="st5" d="M363.1,196.1l-0.5,34.3c-0.5-0.1-1-0.2-1.5-0.4L363.1,196.1z"/>
			<g id="XMLID_6066_">
				<path id="XMLID_6068_" class="st11" d="M390.3,216.3c-0.9,1.4-1.9,2.8-2.8,4.3c-0.7,1-1.4,2-2.1,3.1c-0.5,0.7-0.9,1.5-1.6,1.9
					c-1.2,0.5-2.5,0.8-3.7,0.9c-0.8,0.1-1.5,0.1-2.2,0.4c-0.8,0.3-1.7,0.4-2.5,0.6c-0.2,0-0.4,0.1-0.6,0.3c-0.1,0.2,0,0.5,0.2,0.7
					c0.2,0.2,0.5,0.2,0.7,0.3c1,0.2,2,0.2,3,0.1c0.1,0,0.2,0,0.3,0c0.1,0,0.2,0.2,0.1,0.2c0,0.1-0.1,0.1-0.1,0.1c-0.9,0.6-2,1-3,1.5
					c-0.9,0.5-1.8,1-2.7,1.5c-0.8,0.5-1.2,1.4-0.8,2.2c0,0.1,0.1,0.2,0.1,0.3c0.6,1.2,2.9,4.3,9.8,1.4c2.8-1.2,6.8-5.5,8.6-7.7
					c2.7-3.2,6.4-9.5,6.4-9.5L390.3,216.3z"/>
				<path id="XMLID_6067_" class="st7" d="M380.7,184.4c4.7,0,6,2.8,10.5,10.7c3.9,6.9,9,15.5,9.2,19.1c0,1.2-5,9.2-8.6,13.3
					c-3.1-0.1-5.4-1.3-6.8-3.2c0.9-1.4,5.5-9.8,5.5-9.8l-8.3-12.7c0,0-2.5-2.8-3.4-6.7c-0.9-4.2-0.2-8.4,0.5-10
					C379.4,184.7,380.1,184.4,380.7,184.4z"/>
			</g>
		</g>
		<g id="XMLID_1989_">
			<g id="XMLID_6027_">
				<path id="XMLID_6064_" class="st6" d="M370.4,164.1c0,4.3-3.5,7.9-7.9,7.9c-4.3,0-7.9-3.5-7.9-7.9c0-4.3,3.5-7.9,7.9-7.9
					C366.8,156.3,370.4,159.8,370.4,164.1z"/>
				<path id="XMLID_6063_" class="st6" d="M376.7,169.9c0,0-1.3,6-1.8,7c-0.5,1-1.6,1.3-1.6,1.3l0.1-4.2L376.7,169.9z"/>
				<path id="XMLID_6033_" class="st6" d="M375.2,160.5c0,0,1.3-0.1,2.3,1c1.1,1.1,0.5,5.1-0.8,8.4l-2.4,0.3L375.2,160.5z"/>
				<path id="XMLID_6032_" class="st11" d="M373.6,170.2c0.5,0.3,1.2-0.6,1.8-1.3c0.6-0.6,2.5-1.5,3.5,0.6c1,2.1-0.9,4.8-2.4,5.3
					c-2.6,0.8-3-0.9-3-0.9l-0.2,9.8l0,0c-1.8,2.3-5,2.9-7.2,2.5c-1.8-0.3-3.1-1.1-1.4-3l0-2.9c0,0-2.4,0.4-3.5,0.2
					c-1.9-0.3-3.2-1.8-3.7-3.9c-0.9-3.4-1.3-6.1-0.5-12.7c0.9-7.3,9.3-7.3,13.9-4.5C375.3,162.3,373.6,170.2,373.6,170.2z"/>
				<path id="XMLID_6031_" class="st6" d="M363.2,163.6c2-0.2,3.8-1.2,5.6-2.1c0.2,0.7,0.3,1.4,0.9,2c1.1,1.1,1.7,1.1,2.2,1.4
					c0.2,1.3,0.2,3,0.2,4.3c0,0.4,0,2.8,1.1,2.1c0.3-0.2,0.7-0.7,0.9-1c0.4-0.5,0.8-0.9,1.2-1.3c0.3-0.3,0.3-0.9,0.3-1.3
					c0-0.8,0-1.6-0.1-2.4c-0.1-0.8-0.2-1.6-0.3-2.4c0-0.5,0.2-0.9,0.3-1.3c0.1-0.5,0.2-1,0.2-1.5c-0.1-1.6-1.3-3-2.8-3.7
					c-2-1-4.5-1.2-6.7-1c-1.5,0.1-2.9,0.2-4.3,0.4c-0.4,0-0.8,0-1.2,0.1c-0.4,0.1-0.9,0.3-1.3,0.5c-0.8,0.4-1.6,0.9-2.2,1.6
					c-0.7,0.8-1.3,1.8-1.4,2.9c-0.1,0.5,0,0.8,0.3,1.1c0.4,0.3,0.9,0.7,1.4,0.9C359.2,163.6,361.4,163.8,363.2,163.6z"/>
				<path id="XMLID_6028_" class="st12" d="M364.7,180.3c0,0,4.3-0.9,5.8-1.7c1-0.5,1.8-1.5,2.1-2.1c0,0-0.3,1.3-1.2,2.4
					c-1.1,1.4-6.7,2.5-6.7,2.5L364.7,180.3z"/>
			</g>
			<g id="XMLID_2165_">
				<path id="XMLID_6022_" class="st6" d="M364.8,169.3c0,0.5,0.4,1,0.9,1c0.5,0,0.9-0.4,0.9-1c0-0.5-0.4-1-0.9-1
					C365.2,168.4,364.8,168.8,364.8,169.3z"/>
				<path id="XMLID_6021_" class="st6" d="M365.7,166.2l1.9,1.1c0.3-0.6,0.1-1.2-0.4-1.5C366.7,165.4,366,165.6,365.7,166.2z"/>
				<path id="XMLID_6020_" class="st12" d="M365,175l-2.1,0.8c0.2,0.6,0.9,0.9,1.5,0.7C364.9,176.3,365.2,175.6,365,175z"/>
				<path id="XMLID_6019_" class="st6" d="M357.1,167l1.7-1.3c-0.4-0.5-1-0.6-1.5-0.2C356.9,165.7,356.8,166.5,357.1,167z"/>
				<path id="XMLID_6018_" class="st6" d="M357.5,169.1c0,0.5,0.4,0.9,0.9,0.9c0.5,0,0.9-0.4,0.9-0.9c0-0.5-0.4-0.9-0.9-0.9
					C357.9,168.2,357.5,168.6,357.5,169.1z"/>
				<polygon id="XMLID_2202_" class="st12" points="362.6,167.8 362.3,173.4 359.4,172.4 				"/>
			</g>
		</g>
		<g>
			<path class="st2" d="M378.5,163.4c0,1.2-0.2,2.3-0.5,3.4c-0.3-0.3-0.6-0.6-0.9-0.8c-1.7-1.4-3.9-2.6-6.2-3.4h0
				c-5.2-1.9-11.4-2.1-16.1-0.2c0.1-1,0.3-2,0.6-2.9c1.6-4.6,6-7.9,11.2-7.9C373.2,151.5,378.5,156.8,378.5,163.4z"/>
			<path class="st2" d="M372.3,152.1c-0.6-0.2-3.7-0.8-3.9-0.9c-1.6-0.3-4.1-0.1-6.4,2.3c-3,3-3.4,6.8-3.4,6.8l3.3,0.7h1
				c0.1-2.4,2.7-7.7,7-8.3c0.2,0,0.4,0,0.6,0c0.5,0,1.1,0,1.7,0.2c0,0,1.2,0.7,1.8,1.2C374,154,373.8,152.6,372.3,152.1z"/>
			<path class="st15" d="M372.3,152.1c-0.6-0.2-3.7-0.8-3.9-0.9c-1.6-0.3-4.1-0.1-6.4,2.3c-3,3-3.4,6.8-3.4,6.8l3.3,0.7h1
				c0.1-2.4,2.7-7.7,7-8.3c0.2,0,0.4,0,0.6,0c0.5,0,1.1,0,1.7,0.2c0,0,1.2,0.7,1.8,1.2C374,154,373.8,152.6,372.3,152.1z"/>
			<path class="st2" d="M362.9,161c0.2-2.7,3.7-9.6,9.3-8.1c0,0,1.2,0.7,1.8,1.2c0,0-0.2-1.4-1.7-1.9c-1.5-0.5-4.4-0.6-7.1,2.1
				c-3,3-3.4,6.8-3.4,6.8H362.9z"/>
			<path class="st9" d="M362.9,161c0.2-2.7,3.7-9.6,9.3-8.1c0,0,1.2,0.7,1.8,1.2c0,0-0.2-1.4-1.7-1.9c-1.5-0.5-4.4-0.6-7.1,2.1
				c-3,3-3.4,6.8-3.4,6.8H362.9z"/>
			<path class="st2" d="M370.9,161.5c-0.3-0.2-1.6-2.4-5.7-4.2c-2.6-1.1-7.5-0.7-9.8-0.4c-3.9,0.4-4.8,1.4-4.7,1.9
				c0,0.1,0,0.8,0,0.9c0,0.1,0,0.3,0.1,0.4c0.7,0.8,4,2.1,4,2.1c4.8-1.8,10.9-1.6,16.1,0.2V161.5z"/>
			<path class="st5" d="M370.9,161.5c-0.3-0.2-1.6-2.4-5.7-4.2c-2.6-1.1-7.5-0.7-9.8-0.4c-3.9,0.4-4.8,1.4-4.7,1.9
				c0,0.1,0,0.8,0,0.9c0,0.1,0,0.3,0.1,0.4c0.7,0.8,4,2.1,4,2.1c4.8-1.8,10.9-1.6,16.1,0.2V161.5z"/>
			<path class="st2" d="M370.9,162.5c-5.2-1.9-11.4-2.1-16.1-0.2c0,0-3.3-1.2-4-2.1c-0.4-0.5-0.2-1.7,4.6-2.3
				c2.2-0.3,7.2-0.7,9.8,0.4C369.4,160,370.7,162.3,370.9,162.5z"/>
			<path class="st9" d="M370.9,162.5c-5.2-1.9-11.4-2.1-16.1-0.2c0,0-3.3-1.2-4-2.1c-0.4-0.5-0.2-1.7,4.6-2.3
				c2.2-0.3,7.2-0.7,9.8,0.4C369.4,160,370.7,162.3,370.9,162.5z"/>
		</g>
	</g>
</g>
<g id="Character_2">
	<g id="Character_6_">
		<ellipse transform="matrix(0.5 -0.866 0.866 0.5 34.9917 242.7461)" class="st6" cx="227.7" cy="91.1" rx="6.3" ry="5"/>
		<path class="st7" d="M210.4,95c0,0-3.7-0.9-6.4,5.4c-1.5,3.5-6.6,16.5-6.6,16.5s-7.3,0.7-12.3,0.7v6.5c5.9,0.5,14.9,1.1,16.7,0.1
			c2.4-1.4,10.1-20.2,10.1-20.2C212.7,97,210.4,95,210.4,95z"/>
		<path class="st16" d="M180.6,117.2c-0.9-0.4-1.3-1.6-1.6-2.3c-0.5-1.3-0.3-2.8-0.3-3.3c-0.1-0.9-1.5-0.3-1.8,1.3
			c-0.3,1.1-0.1,2.2-0.5,2.4c-0.1,0.1-1.8-0.4-2-0.5c-0.9-0.4-2.6-0.9-3.5-0.2c-0.3,0.2-0.5,0.6-0.5,1c0,0.6,0.2,1.1,0,1.7
			c-0.1,0.3-0.2,0.5-0.2,0.8c0,0.4,0.2,0.6,0.3,1c0.1,0.5-0.4,0.9-0.3,1.4c0,0.3,0.3,0.6,0.4,1c0.1,0.2,0,0.5,0.1,0.7
			c0.1,0.4,0.5,0.7,0.9,0.9c1.4,0.7,2.7,0.8,4.2,0.9c1.2,0.1,2.8-0.1,4.2-0.1c0.5,0,2.5,0.2,5.2,0.4v-6.5
			C182.9,117.6,181.2,117.5,180.6,117.2z"/>
		<g id="XMLID_6120_">
			<path id="XMLID_6122_" class="st2" d="M228.2,121.7c1.1,1.6,4.6,6.1,6.3,13.1c2.9,11.6-1.6,36.3-1.6,36.3c0.1,1.7,2.1,5,2.8,12.4
				c0.8,8.7-1.6,32.1-1.6,32.1s-2.3,1.7-5.6,0.1c0,0-6.1-34.3-7.2-43c-1-7.6-2.9-23.3-2.9-23.3l-4.4,23.2c0,0,0.6,4.2,0.9,7.5
				c0.5,5.1-4.5,30.7-4.5,30.7s-2.3,1.2-5.6-0.1c0,0-2.2-33.1-2.7-39.2c-0.5-6.3,1.2-21.1,2.4-32.8c0.4-3.5,2.2-14.4,2.8-17.5
				L228.2,121.7z"/>
			<path id="XMLID_6089_" class="st13" d="M228.2,121.7c1.1,1.6,4.6,6.1,6.3,13.1c2.9,11.6-1.6,36.3-1.6,36.3
				c0.1,1.7,2.1,5,2.8,12.4c0.8,8.7-1.6,32.1-1.6,32.1s-2.3,1.7-5.6,0.1c0,0-6.1-34.3-7.2-43c-1-7.6-2.9-23.3-2.9-23.3l-4.4,23.2
				c0,0,0.6,4.2,0.9,7.5c0.5,5.1-4.5,30.7-4.5,30.7s-2.3,1.2-5.6-0.1c0,0-2.2-33.1-2.7-39.2c-0.5-6.3,1.2-21.1,2.4-32.8
				c0.4-3.5,2.2-14.4,2.8-17.5L228.2,121.7z"/>
			<path class="st6" d="M211.9,207.1c0.6-4,2.6-9,1-9.5l-0.3,1.8c0,0-1.2,0.9-4,0.9c-2.8,0-4.5-1.6-4.5-1.6l-0.1-1.4
				c-0.9,0.2-0.8,0.8-0.4,3.4c0.4,2.5,1,9.7,0.7,11.1c-0.3,1.3,0.7,2.3-2.5,5c-3.2,2.7-5.5,4.7-7.7,5.8c-2.1,1.1-4,2.3-1.3,3.9
				c0,0,0,0,0,0c0.9,0.7,2.3,1.1,4.1,1.2c2.1,0,5.1-1.2,6.5-2.6c1.1-1.1,3.2-2.5,4.7-2.8c1.5-0.2,3.6-1.6,3.8-2.6
				c0.2-0.9-0.1-2.8-0.4-4c-0.1-0.4-0.1-0.7-0.2-1C211.1,212.5,211.3,211.1,211.9,207.1z"/>
			<path id="XMLID_6121_" class="st17" d="M218.4,149.3l-1-7.2c0,0-4.2,0-8.4-2.7c0,0,2.6,3.5,7.1,3.9l0.7,6.4l-2.1,20L218.4,149.3z
				"/>
			<path class="st6" d="M234.6,219c0.1-3.2,0.8-10.7,1-13.2c0.2-2.4-0.4-2.2-0.4-2.2l-0.1,1.5c0,0-1.1,1-3.9,1.1
				c-2.7,0.1-4.5-1-4.5-1c-0.1-0.7-0.2-1.4-0.2-1.4c-0.8,0.5-0.2,2.1,0.7,6.8c0.9,4.7,1.2,4.7,0.6,10.9c-0.6,6.2-0.8,9.4-0.7,11.2
				l0.1,0.1c0.1,1,0.4,2,1,3.2c1.3,2.7,4.3,1.3,5.5-0.4c0.9-1.3,1.4-2.2,1.5-4l0,0l0,0c0-0.5,0-1,0-1.6c-0.1-1.9-0.4-3-0.6-4.7
				l0-0.5c0-0.1,0-0.2,0-0.4C234.6,224.5,234.6,222.2,234.6,219z"/>
		</g>
		<g id="XMLID_6117_">
			<g id="XMLID_6118_">
				<path id="XMLID_6119_" class="st8" d="M206.9,114c0.1,2.1,0.5,7.1,0.5,7.1c8.6,5.8,20.9,0.5,20.9,0.5l1.8-12.2
					c0,0-4.5-6.3-0.3-12.9l-6.7-1.3l-8-0.7l-4.7,0.4c-2.6,1.9-4.4,5.8-5.2,8C204.3,105.2,203.1,109.5,206.9,114z"/>
			</g>
		</g>
		<path class="st2" d="M230,121.8l0.5-12c0,0-4.3-6.7-0.1-13.3l-7-1.6l0,0.7l1.3,0.3c-0.8,2.3-5.8,7-10.9,7.8c-2.5-2.3-1-6.1,0-8
			l0.8-0.2c0.4-0.3,0.5-0.8,0.5-0.8l-4.7,0.4c-2.6,1.9-4.6,6-5.4,8.2c-0.9,2.2-2.1,6.3,1.8,10.8c0.1,2.1,0.1,7.1,0.1,7.1l-2.3,14.6
			c19.1,6.2,30.5-1.4,30.5-1.4C233.3,130,230,121.8,230,121.8z"/>
		<path class="st14" d="M206.8,119.6c0.8,1.6,8.2,1.9,13.1,1.8c4.9-0.1,10.2-2.2,10.2-2.2l0.1-2.5c0,0-5.5,2-10.3,2.2
			c-4.9,0.1-12.3-0.2-13.1-1.8V119.6z"/>
		<path class="st14" d="M230.9,124.1c-0.5-1.3-0.9-2.2-0.9-2.2l0,0c-1,0.4-5.8,2-10.1,2.1c-4.9,0.1-12.3-0.2-13.1-1.8v2.5
			c0.8,1.6,8.2,1.9,13.1,1.8C223.9,126.3,229.2,124.7,230.9,124.1z"/>
		<path class="st5" d="M214.2,137.8c0.8,0.1,1.5,0.2,2.2,0.2c-0.9-3.4-2.1-8.6-2.7-14.2c-1.1-9.3,0-20.1,0-20.1
			C211.6,108.8,211.9,125.7,214.2,137.8z"/>
		<g id="XMLID_6105_">
			<polygon id="XMLID_6113_" class="st7" points="188.9,119.9 210.7,121.4 221.7,145.9 201,144 			"/>
			<path id="XMLID_6111_" class="st5" d="M209.1,136.9c0.2,0.7,1.4,2.8,3.9,3.1c2.9,0.4,5.6-1.1,5.6-1.1l-0.9-2H209.1z"/>
			<path id="XMLID_6110_" class="st5" d="M195.7,122.5c0,0-0.1-0.3-0.3-0.8c-0.2-0.4,1-0.7,2.7-0.6l3.2,0.2c1.7,0.1,3.2,0.5,3.3,0.9
				l0.3,0.8L195.7,122.5z"/>
			<g id="XMLID_6106_">
				<path id="XMLID_6109_" class="st2" d="M193.7,119.8c-0.1-0.3,0.4-0.4,1.1-0.4l1.3,0.1c0,0-0.7-1.6,2.1-1.6
					c2.8,0.1,3.8,1.9,3.8,1.9s0.6,0.1,1.4,0.1c0.8,0.1,1.5,0.3,1.6,0.6l0.2,0.5l-11.2-0.8C193.9,120.3,193.8,120,193.7,119.8z"/>
				<path id="XMLID_6091_" class="st9" d="M193.7,119.8c-0.1-0.3,0.4-0.4,1.1-0.4l1.3,0.1c0,0-0.7-1.6,2.1-1.6
					c2.8,0.1,3.8,1.9,3.8,1.9s0.6,0.1,1.4,0.1c0.8,0.1,1.5,0.3,1.6,0.6l0.2,0.5l-11.2-0.8C193.9,120.3,193.8,120,193.7,119.8z"/>
				<path class="st2" d="M204.5,122.4c-0.1-0.3-1.2-0.7-2.5-0.9c0,0,0-0.1-0.1-0.1c-0.1-0.4,0-0.6,0.8-0.6l0-0.3l-7.8-0.5l0.4,0.3
					c1,0,1.5,0.1,1.7,0.7c0,0.1,0,0.1,0.1,0.1c-1.2,0-2,0.2-1.9,0.6c0.2,0.4,0.3,0.8,0.3,0.8l9.3,0.6L204.5,122.4z"/>
				<path class="st13" d="M204.5,122.4c-0.1-0.3-1.2-0.7-2.5-0.9c0,0,0-0.1-0.1-0.1c-0.1-0.4,0-0.6,0.8-0.6l0-0.3l-7.8-0.5l0.4,0.3
					c1,0,1.5,0.1,1.7,0.7c0,0.1,0,0.1,0.1,0.1c-1.2,0-2,0.2-1.9,0.6c0.2,0.4,0.3,0.8,0.3,0.8l9.3,0.6L204.5,122.4z"/>
			</g>
		</g>
		<path class="st16" d="M222.9,129.1c-0.7,0.4-1.2,0.8-1.7,1.1c-0.6,0.3-1.5-0.1-2.1-0.3c-1.8-0.4-2.9-0.1-4.5,0
			c-1.3,0.1-2-0.3-2.1,0c-0.2,0.4-0.1,1.3,0.9,1.8c0.5,0.3,1.3,0.4,2.4,0.6c0,0-1.7,0.9-4.2,1.2c-3.3,0.4-4.5,1.5-1.4,4.5
			c1.9,1.9,4.6,2.2,10.2-0.7c1.1-0.6,3.3-1.8,5.4-3L222.9,129.1z"/>
		<path class="st7" d="M237.5,104.2c-1.9-6.9-4.6-7.5-8.7-7.8c-4.2,7.3,1.1,13.6,1.1,13.6l3.8,11.4c-0.6,0.6-7,5.2-10.8,7.6l2.8,5.2
			c1-0.5,1.9-1,2.7-1.4c5.9-2.9,13.7-6,13.8-9S239.6,111.5,237.5,104.2z"/>
		<g id="XMLID_6080_">
			<g id="XMLID_6099_">
				<path id="XMLID_6100_" class="st6" d="M206.6,81.6c-0.1,0-0.3-0.1-0.4-0.2c-0.8-0.3-1.5-0.9-2-1.6c-0.6-0.9-0.8-2-0.6-3.1
					c0.2-1.1,0.8-2.1,2.2-3.3c0.5-0.4,0.4-0.2,0.8-0.7c0.5-0.5,0.8-1.1,1.1-1.7c0.1-0.3,0.3-0.6,0.4-0.9c0.2-0.5,0.5-1,0.7-1.4
					c0.2-0.3,0.5-0.6,0.8-0.8c0.7-0.5,1.4-0.9,2.2-1.3c1.6-0.7,3.4-1.1,5.2-1.1c2.3,0,4.7,0.5,6.7,1.6c2.2,1.2,3.8,2.5,4.6,4.9
					c0.9,2.7,1.6,5.3,1.6,8.1c0,1.9-1,4-2,5.6c-2.4,3.7-3.8,4.6-4.6,7.1c-0.3,0.8-1.5-0.3-2.2-0.5c-2.1-0.6-4.4-1-6.5-1.6
					c-1.2-0.4-2.1-1.5-2.7-2.5c-0.4-0.5-0.7-1.1-1-1.7c-0.8-1.4-1.5-2.9-2.7-4c-0.3-0.3-0.5-0.5-0.9-0.7
					C207.1,81.8,206.8,81.7,206.6,81.6z"/>
			</g>
			<g id="XMLID_6095_">
				<path id="XMLID_6096_" class="st16" d="M209,73.8c-1.5,0.8-2.8,1.9-2.8,9.8c0,6.7,2.1,8.4,3.2,8.9c1.1,0.5,3.2,0.3,5.2,0l0,3
					c0,0-1.5,3.4,2.5,3.7c5.5,0.4,6.3-3.2,6.3-3.2l0.2-8.8c0,0,1.4,1.1,3.1-0.6c1.6-1.7,1.4-4,0.4-4.8c-1.5-1.2-2.9-0.8-3.8,1
					c-4.4,0-6-5.5-6.3-8.6C214.4,71.8,211.5,78.3,209,73.8z"/>
			</g>
			<path id="XMLID_6092_" class="st6" d="M222.5,85.3l1-3.4c-0.9-0.3-2.3-0.1-2.3,0.9C221.1,83.9,221.5,85,222.5,85.3z"/>
			<g id="XMLID_6088_">
				<path id="XMLID_6090_" class="st6" d="M207.2,73.3c0,0,1.1,6.2,9.8,6.4v-7.1L207.2,73.3z"/>
			</g>
			<g id="XMLID_6081_">
				<path id="XMLID_6087_" class="st6" d="M214,82c0,0.5,0.3,0.9,0.8,1c0.5,0,0.9-0.3,0.9-0.8c0-0.5-0.3-0.9-0.8-1
					C214.4,81.1,214,81.5,214,82z"/>
				<path id="XMLID_6086_" class="st18" d="M214.7,87.4l-2.6,0.8c0.2,0.8,1,1.2,1.7,1C214.5,88.9,214.9,88.1,214.7,87.4z"/>
				<path id="XMLID_6085_" class="st6" d="M207,79.4l1.7-1.1c-0.3-0.5-0.9-0.6-1.4-0.3C206.8,78.3,206.7,78.9,207,79.4z"/>
				<path id="XMLID_6084_" class="st6" d="M207.2,81.6c0,0.5,0.3,0.9,0.8,1c0.5,0,0.9-0.3,0.9-0.8c0-0.5-0.3-0.9-0.8-1
					C207.6,80.7,207.2,81.1,207.2,81.6z"/>
				<polygon id="XMLID_6083_" class="st18" points="211.5,81.2 211.5,86.6 208.9,85.7 				"/>
				<path id="XMLID_6082_" class="st18" d="M214.5,92.4c2.1-0.2,6.5-1.3,7.2-3c0,0-0.3,1.1-1.6,2.1c-1.3,1.1-5.6,2.2-5.6,2.2
					L214.5,92.4z"/>
			</g>
		</g>
		<g>
			<path class="st2" d="M230.7,76.6c-0.1,1.2-0.4,2.4-0.8,3.6c-0.3-0.3-0.6-0.7-0.9-1c-1.7-1.7-3.8-3.1-6.2-4.1l0,0
				c-5.3-2.4-11.8-3.1-17-1.6c0.2-1,0.5-2.1,0.9-3c2.1-4.7,7-7.8,12.5-7.4C226.1,63.7,231.3,69.7,230.7,76.6z"/>
			<path class="st2" d="M225.1,64.2c-0.6-0.3-3.8-1.2-4.1-1.3c-1.7-0.5-4.3-0.4-7,1.9c-3.5,2.9-4.1,6.9-4.1,6.9l3.4,1l1.1,0.1
				c0.4-2.5,3.5-7.9,8.1-8.1c0.2,0,0.4,0,0.6,0c0.6,0,1.2,0.1,1.8,0.3c0,0,1.2,0.8,1.8,1.4C226.7,66.4,226.6,64.9,225.1,64.2z"/>
			<path class="st15" d="M225.1,64.2c-0.6-0.3-3.8-1.2-4.1-1.3c-1.7-0.5-4.3-0.4-7,1.9c-3.5,2.9-4.1,6.9-4.1,6.9l3.4,1l1.1,0.1
				c0.4-2.5,3.5-7.9,8.1-8.1c0.2,0,0.4,0,0.6,0c0.6,0,1.2,0.1,1.8,0.3c0,0,1.2,0.8,1.8,1.4C226.7,66.4,226.6,64.9,225.1,64.2z"/>
			<path class="st2" d="M214.4,72.8c0.4-2.9,4.7-9.8,10.6-7.8c0,0,1.2,0.8,1.8,1.4c0,0-0.1-1.5-1.6-2.2c-1.5-0.7-4.6-1-7.7,1.6
				c-3.5,2.9-4.1,6.9-4.1,6.9L214.4,72.8z"/>
			<path class="st9" d="M214.4,72.8c0.4-2.9,4.7-9.8,10.6-7.8c0,0,1.2,0.8,1.8,1.4c0,0-0.1-1.5-1.6-2.2c-1.5-0.7-4.6-1-7.7,1.6
				c-3.5,2.9-4.1,6.9-4.1,6.9L214.4,72.8z"/>
			<path class="st2" d="M222.9,74.1c-0.2-0.2-1.5-2.7-5.7-4.9c-2.6-1.3-7.9-1.3-10.3-1.2c-4.2,0.1-5.1,1-5.2,1.6
				c0,0.1-0.1,0.8-0.1,1c0,0.2,0,0.3,0.1,0.4c0.6,0.9,4,2.5,4,2.5c5.2-1.5,11.7-0.8,17,1.6L222.9,74.1z"/>
			<path class="st5" d="M222.9,74.1c-0.2-0.2-1.5-2.7-5.7-4.9c-2.6-1.3-7.9-1.3-10.3-1.2c-4.2,0.1-5.1,1-5.2,1.6
				c0,0.1-0.1,0.8-0.1,1c0,0.2,0,0.3,0.1,0.4c0.6,0.9,4,2.5,4,2.5c5.2-1.5,11.7-0.8,17,1.6L222.9,74.1z"/>
			<path class="st2" d="M222.8,75.1c-5.3-2.4-11.8-3.1-17-1.6c0,0-3.4-1.6-4-2.5c-0.3-0.5-0.1-1.9,5.1-2c2.4-0.1,7.7-0.1,10.3,1.2
				C221.3,72.4,222.6,74.9,222.8,75.1z"/>
			<path class="st9" d="M222.8,75.1c-5.3-2.4-11.8-3.1-17-1.6c0,0-3.4-1.6-4-2.5c-0.3-0.5-0.1-1.9,5.1-2c2.4-0.1,7.7-0.1,10.3,1.2
				C221.3,72.4,222.6,74.9,222.8,75.1z"/>
		</g>
	</g>
</g>
<g id="Character_1">
	<g id="Character_15_">
		<g>
			<path id="XMLID_6062_" class="st19" d="M101.5,133.9c3.8,1.3,4.8,1.6,7.4,5.7c2.6,4,5.2,11.3,7.5,17.2c4.2-1.2,13.2-3.3,16.1-5
				c3-1.7,2.7-2.9,3.9-4c1.4-1.3,2.9-4.3,4-2.7c0.8,1.1-0.8,1.9-0.7,3.3c0.1,1.4,4.5-2,6.3-3.2c1.2-0.8,4,1.8,2.9,4.7
				c-1,2.5-2.6,4.2-5.4,5.4c-3,1.3-4.6,1.9-8.4,3.6c-4,1.8-20.3,9-21.9,8c-3.7-1.8-7-13.2-9.3-18.1
				C101.6,143.9,103.1,138.8,101.5,133.9z"/>
			<path id="XMLID_6061_" class="st7" d="M100.5,133.4c1.6,2.2,1,1.3,1.5,4.6c0.4,2.7,6.1,28.6,11.2,29.7c2.3,0.5,18.5-7,22.4-9.1
				c-1.3-2-2.7-4.4-3.1-6.9c-4.7,1.8-12.9,3.7-15.8,4.6c-1.4-3.8-3-7.6-4.6-11.4C109.2,137.7,107.6,132.5,100.5,133.4z"/>
		</g>
		<g id="XMLID_6054_">
			
				<rect id="XMLID_6060_" x="78.5" y="251" transform="matrix(-1 -1.224647e-16 1.224647e-16 -1 163.3227 512.8535)" class="st19" width="6.3" height="10.8"/>
			<polygon id="XMLID_6059_" class="st19" points="102,255.1 108.9,255.3 109.3,242.8 101.4,242.6 			"/>
			<path id="XMLID_6058_" class="st2" d="M79.3,177.3c0,5.8-0.4,39.2-0.4,39.2c-0.1,1.7-1.7,4.6-1.9,10.6c-0.2,8.7,1.2,29,1.2,29
				s2.9,1.7,6.7,0.1c0,0,4.7-28.8,5.8-37.4c0.9-7.5,3.6-27,3.6-27l4.1,25.4c0,0-0.7,4.1-0.3,9.2c0.3,4,3.3,23.7,3.3,23.7
				s3.9,1.5,8,0.1c0,0,0.6-30.7,0.7-34.3c0.1-4.1-1.7-39.8-1.7-39.8L79.3,177.3z"/>
			<path id="XMLID_1988_" class="st13" d="M79.3,177.3c0,5.8-0.4,39.2-0.4,39.2c-0.1,1.7-1.7,4.6-1.9,10.6c-0.2,8.7,1.2,29,1.2,29
				s2.9,1.7,6.7,0.1c0,0,4.7-28.8,5.8-37.4c0.9-7.5,3.6-27,3.6-27l4.1,25.4c0,0-0.7,4.1-0.3,9.2c0.3,4,3.3,23.7,3.3,23.7
				s3.9,1.5,8,0.1c0,0,0.6-30.7,0.7-34.3c0.1-4.1-1.7-39.8-1.7-39.8L79.3,177.3z"/>
			<path id="XMLID_6057_" class="st6" d="M84.8,258.7c0,0,0-0.9,0-0.9c0.3,0,0.5,0.3,0.7,1.1c0.1,0.6,0.2,1,0.4,1.8
				c0.3,1.2,0.6,1.9,1.1,3.2c0.9,2.2,1.6,3,3.7,5.6c0.5,0.6,1.6,1.6,2,2.3s0.5,2.6-0.1,3c-2.4,1.6-6,1.6-8.6,0.9
				c-2-0.6-3.4-2.2-3.7-4.2c-0.1-0.6-0.1-1.2-0.1-1.8c-0.2-1.3-0.8-2.6-1.6-3.7c-0.4-0.6-0.9-1.3-1.2-2c-0.5-1.3-0.1-2.8,0.2-4.1
				c0.3-1.1,0.6-2.3,1-2.2c0,0.1,0,0.7,0,0.7c0.5,0.5,1.7,1,3.2,1.1C82.6,259.6,84.8,259.4,84.8,258.7z"/>
			<path id="XMLID_6056_" class="st6" d="M109,253.2c0.4,0,0.7,0.5,1.4,1.4c1,1,2.5,2.2,4.1,2.9c2.6,1.3,7.6,3.3,9.9,4.3
				c1.4,0.6,1.4,2.4-0.1,3.3c-1.5,1-5,1.7-9.3,0.7c-2.3-0.5-5.3-2.7-7.3-2.5c-1.9,0.1-5.5,0.1-6.9-0.9c-1.4-1-0.8-3.1-0.4-4.8
				c0.4-1.9,0.9-5,1.5-4.9l0,0.7c0.8,1.3,5.2,1.7,7,0.8L109,253.2z"/>
			<path id="XMLID_6055_" class="st5" d="M94.3,191.9c0,0,5.4-1.8,9-5.2c0,0-1.6,3-6.4,5.9l1.2,22.3L94.3,191.9z"/>
		</g>
		<g id="XMLID_6049_">
			<path id="XMLID_6053_" class="st8" d="M89.7,133.3c-1.3,0.3-4.4,0.7-6.6,1.3c-1.7,0.5-2.4,2.5-2.7,4c-1.1,4.9-1.3,15.2-1.3,15.2
				l-0.1,24c4.2,3,21.2,4.6,30-1.8c0,0-1.1-28.6-1.1-33c0-4.4-2.5-9.8-9.3-10.2L89.7,133.3z"/>
			<path class="st2" d="M88.8,133.5L88.8,133.5c-1,0.2-1.5,1.2-1.1,2.2c0.8,1.8,2.1,3.9,3.7,5.7c2.5,2.8,7.7,5.1,7.7,5.1
				s2.6-2.9,2.1-6.3c-0.5-3.3-1.8-6.1-2.8-6.9c-0.3-0.3-0.9-0.4-0.9-0.4v-0.4c0,0,2.6-0.3,4.4,0.5c1.8,0.8,4.9,2.1,5.9,7.6
				c1,5.5,1.9,36.2,1.9,36.2s-10.5,9.6-31.3,2.6v-25.3c0,0-0.4-11.8,2.8-19.6l0,0l7.6-1.5L88.8,133.5z"/>
			<path class="st14" d="M109.3,164c-1.7,3.1-9.6,4.9-16.4,5c-6.8,0.1-12.5-1.9-14.4-3.7v-3c1.9,1.8,7.6,3.8,14.4,3.7
				c6.8-0.1,14.6-2,16.3-5L109.3,164z"/>
			<path class="st14" d="M78.4,170.8c1.9,1.8,7.6,3.8,14.4,3.7c6.8-0.1,14.9-2,16.6-5.1l-0.1-3c-1.7,3.1-9.7,4.9-16.5,5.1
				c-6.8,0.1-12.5-1.9-14.4-3.7V170.8z"/>
			<path class="st5" d="M99.1,146.5l0.5,34.8c0.5-0.1,1-0.2,1.5-0.4L99.1,146.5z"/>
			<g id="XMLID_6050_">
				<path id="XMLID_6052_" class="st19" d="M71.5,167.1c1,1.5,1.9,2.9,2.9,4.3c0.7,1,1.4,2.1,2.1,3.1c0.5,0.7,0.9,1.6,1.7,1.9
					c1.2,0.6,2.5,0.8,3.8,0.9c0.8,0.1,1.5,0.1,2.2,0.4c0.8,0.3,1.7,0.4,2.6,0.6c0.2,0,0.4,0.1,0.6,0.3c0.2,0.2,0.1,0.6-0.2,0.7
					c-0.2,0.2-0.5,0.3-0.8,0.3c-1,0.2-2,0.3-3.1,0.1c-0.1,0-0.2,0-0.3,0c-0.1,0-0.2,0.2-0.1,0.3c0,0.1,0.1,0.1,0.1,0.1
					c1,0.6,2,1,3.1,1.5c0.9,0.5,1.9,1,2.8,1.6c0.8,0.5,1.2,1.4,0.8,2.3c0,0.1-0.1,0.2-0.1,0.3c-0.6,1.2-3,4.4-9.9,1.4
					c-2.9-1.2-6.9-5.6-8.8-7.9c-2.8-3.3-6.5-9.6-6.5-9.6S71.5,167.1,71.5,167.1z"/>
				<path id="XMLID_6051_" class="st7" d="M81.2,134.6c-4.8,0-6.1,2.8-10.7,10.9c-4,7-9.2,15.8-9.3,19.4c0,1.2,5.1,9.3,8.7,13.5
					c3.2-0.1,5.5-1.4,7-3.2c-0.9-1.5-5.6-10-5.6-10l8.4-13c0,0,2.5-2.8,3.4-6.8c1-4.2,0.2-8.5-0.5-10.2
					C82.5,134.9,81.8,134.6,81.2,134.6z"/>
			</g>
		</g>
		<g id="XMLID_1233_">
			<g id="XMLID_6041_">
				
					<ellipse id="XMLID_6048_" transform="matrix(0.9871 -0.1602 0.1602 0.9871 -17.014 17.3543)" class="st6" cx="99.1" cy="114.2" rx="8" ry="8"/>
				<path id="XMLID_6047_" class="st6" d="M85.3,119.9c0,0,1.3,6.1,1.8,7.1c0.5,1,1.6,1.3,1.6,1.3l-0.1-4.3L85.3,119.9z"/>
				<path id="XMLID_6046_" class="st6" d="M86.8,110.3c0,0-1.3-0.1-2.4,1c-1.1,1.1-0.5,5.2,0.8,8.6l2.4,0.3L86.8,110.3z"/>
				<path id="XMLID_6045_" class="st19" d="M88.5,120.2c-0.5,0.3-1.2-0.6-1.8-1.3c-0.6-0.6-2.6-1.5-3.6,0.6c-1,2.1,0.9,4.9,2.4,5.4
					c2.7,0.8,3.1-0.9,3.1-0.9l0.2,9.9l0,0c1.8,2.4,5.1,2.9,7.3,2.5c1.8-0.3,3.1-1.1,1.4-3.1l0-2.9c0,0,2.4,0.4,3.6,0.2
					c2-0.3,3.2-1.9,3.8-4c1-3.4,1.3-6.2,0.5-12.9c-0.9-7.4-9.5-7.5-14.1-4.5C86.7,112.1,88.5,120.2,88.5,120.2z"/>
				<path id="XMLID_6044_" class="st6" d="M99,113.5c-2-0.2-3.9-1.2-5.7-2.1c-0.2,0.7-0.3,1.4-0.9,2c-1.1,1.1-1.8,1.2-2.2,1.4
					c-0.2,1.3-0.2,3-0.2,4.4c0,0.5,0,2.8-1.1,2.1c-0.3-0.2-0.7-0.8-0.9-1c-0.4-0.5-0.8-1-1.2-1.4c-0.3-0.3-0.3-1-0.3-1.3
					c0-0.8,0-1.6,0.1-2.4c0.1-0.8,0.2-1.6,0.3-2.5c0-0.5-0.2-0.9-0.3-1.4c-0.1-0.5-0.2-1-0.2-1.6c0.1-1.7,1.4-3.1,2.8-3.8
					c2.1-1,4.6-1.2,6.9-1c1.5,0.1,2.9,0.2,4.4,0.4c1.6,0.2,3.2,0.1,4.9,0c0.7-0.1,1.6-0.2,2.1,0.3c0.4,0.4,0.5,1.1,0.4,1.7
					c-0.2,0.6-0.5,1.1-0.9,1.6c0.2-0.2,0.6-0.1,0.7,0.1c0.2,0.2,0.2,0.6,0,0.8c-0.5,1.1-1.8,2.2-2.8,2.7
					C103,113.4,100.8,113.7,99,113.5z"/>
				<path id="XMLID_6043_" class="st6" d="M86.4,111.1l-3-1.6c0.4-0.8,1.4-1.2,2.2-0.7C86.5,109.3,86.8,110.3,86.4,111.1z"/>
				<path id="XMLID_6042_" class="st20" d="M97.5,130.4c0,0-4.4-0.9-5.9-1.7c-1-0.5-1.9-1.5-2.1-2.1c0,0,0.3,1.3,1.2,2.5
					c1.1,1.4,6.8,2.5,6.8,2.5L97.5,130.4z"/>
			</g>
			<g id="XMLID_6034_">
				<path id="XMLID_6040_" class="st6" d="M97.4,119.3c0,0.5-0.4,1-0.9,1c-0.5,0-0.9-0.4-0.9-1c0-0.5,0.4-1,0.9-1
					C97,118.3,97.4,118.7,97.4,119.3z"/>
				<path id="XMLID_6039_" class="st6" d="M96.4,116.1l-1.9,1.1c-0.3-0.6-0.1-1.3,0.5-1.6C95.5,115.3,96.2,115.5,96.4,116.1z"/>
				<path id="XMLID_6038_" class="st20" d="M97.2,125l2.2,0.8c-0.2,0.6-0.9,0.9-1.5,0.7C97.2,126.3,96.9,125.7,97.2,125z"/>
				<path id="XMLID_6037_" class="st6" d="M105.2,116.9l-1.8-1.4c0.4-0.5,1.1-0.6,1.5-0.2C105.4,115.6,105.5,116.4,105.2,116.9z"/>
				<path id="XMLID_6036_" class="st6" d="M104.8,119.1c0,0.5-0.4,0.9-0.9,0.9c-0.5,0-0.9-0.4-0.9-0.9c0-0.5,0.4-0.9,0.9-0.9
					C104.4,118.1,104.8,118.6,104.8,119.1z"/>
				<polygon id="XMLID_6035_" class="st20" points="99.6,117.7 99.9,123.4 102.9,122.4 				"/>
			</g>
		</g>
	</g>
</g>
<g id="Machine">
	<g id="Production_Line">
		<g>
			<g>
				<g>
					<polygon class="st2" points="112.8,309.5 95.6,319.4 95.6,323 112.8,313.1 					"/>
					<polygon class="st21" points="112.8,309.5 95.6,319.4 95.6,323 112.8,313.1 					"/>
					<polygon class="st2" points="95.6,319.4 46.9,291.3 46.9,294.9 95.6,323 					"/>
					<polygon class="st22" points="95.6,319.4 46.9,291.3 46.9,294.9 95.6,323 					"/>
					<polygon class="st2" points="95.6,319.4 112.8,309.5 64.1,281.4 46.9,291.3 					"/>
					<polygon class="st23" points="95.6,319.4 112.8,309.5 64.1,281.4 46.9,291.3 					"/>
				</g>
				<g>
					<polygon class="st7" points="102.6,282.5 102.6,310.7 99.7,312.4 99.7,284.2 					"/>
					<polygon class="st6" points="96.8,282.5 96.8,310.7 99.7,312.4 99.7,284.2 					"/>
				</g>
				<polygon class="st8" points="108.8,275.4 91.6,285.4 91.6,289 108.8,279 				"/>
				<polygon class="st7" points="91.6,289 88.5,287.2 91.6,285.4 				"/>
			</g>
			<g>
				<g>
					<polygon class="st2" points="173.8,274.3 156.6,284.3 156.6,287.9 173.8,277.9 					"/>
					<polygon class="st21" points="173.8,274.3 156.6,284.3 156.6,287.9 173.8,277.9 					"/>
					<polygon class="st2" points="156.6,284.3 107.8,256.1 107.8,259.7 156.6,287.9 					"/>
					<polygon class="st22" points="156.6,284.3 107.8,256.1 107.8,259.7 156.6,287.9 					"/>
					<polygon class="st2" points="156.6,284.3 173.8,274.3 125,246.2 107.8,256.1 					"/>
					<polygon class="st23" points="156.6,284.3 173.8,274.3 125,246.2 107.8,256.1 					"/>
				</g>
				<g>
					<polygon class="st7" points="163.5,247.4 163.5,275.6 160.6,277.2 160.6,249 					"/>
					<polygon class="st6" points="157.7,247.4 157.7,275.6 160.6,277.2 160.6,249 					"/>
				</g>
				<polygon class="st8" points="169.7,240.3 152.5,250.2 152.5,253.8 169.7,243.9 				"/>
				<polygon class="st7" points="152.5,253.8 149.4,252 152.5,250.2 				"/>
			</g>
			<g>
				<g>
					<polygon class="st2" points="214.4,250.9 197.2,260.8 197.2,264.4 214.4,254.5 					"/>
					<polygon class="st21" points="214.4,250.9 197.2,260.8 197.2,264.4 214.4,254.5 					"/>
					<polygon class="st2" points="197.2,260.8 148.4,232.7 148.4,236.3 197.2,264.4 					"/>
					<polygon class="st22" points="197.2,260.8 148.4,232.7 148.4,236.3 197.2,264.4 					"/>
					<polygon class="st2" points="197.2,260.8 214.4,250.9 165.6,222.7 148.4,232.7 					"/>
					<polygon class="st23" points="197.2,260.8 214.4,250.9 165.6,222.7 148.4,232.7 					"/>
				</g>
				<g>
					<polygon class="st7" points="204.2,223.9 204.2,252.1 201.2,253.8 201.2,225.6 					"/>
					<polygon class="st6" points="198.3,223.9 198.3,252.1 201.2,253.8 201.2,225.6 					"/>
				</g>
				<polygon class="st8" points="210.3,216.8 193.1,226.7 193.1,230.3 210.3,220.4 				"/>
				<polygon class="st7" points="193.1,230.3 190,228.5 193.1,226.7 				"/>
			</g>
			<g>
				<path class="st2" d="M31.9,253.1l150.3-86.8c2-1.2,3.9-1.3,5.2-0.6l44.5,25.7c1.2,0.7,1.9,2.1,1.9,4.2c0,4.3-3.2,9.5-7.1,11.8
					L76.9,293.8c-2.1,1.2-4,1.3-5.4,0.5l-44.4-25.6c-1.2-0.7-2-2.1-2-4C24.9,260.6,28,255.4,31.9,253.1z"/>
				<path class="st2" d="M226.6,207.4L76.9,293.8c-2.1,1.2-4,1.3-5.4,0.5c-1.2-0.7-1.9-2.1-2-4c-0.1-4.2,2.9-9.4,6.8-11.6L226.6,192
					c2-1.2,3.9-1.3,5.2-0.6c1.2,0.7,1.9,2.1,1.9,4.2C233.7,199.8,230.6,205.1,226.6,207.4z"/>
				<path class="st24" d="M226.6,207.4L76.9,293.8c-2.1,1.2-4,1.3-5.4,0.5c-1.2-0.7-1.9-2.1-2-4c-0.1-4.2,2.9-9.4,6.8-11.6
					L226.6,192c2-1.2,3.9-1.3,5.2-0.6c1.2,0.7,1.9,2.1,1.9,4.2C233.7,199.8,230.6,205.1,226.6,207.4z"/>
				<path class="st8" d="M73.5,292.7c0.5,0,1.3-0.1,2.3-0.8l149.8-86.5c3.3-1.9,6-6.4,6-9.9c0-1.1-0.3-2-0.8-2.3
					c-0.2-0.1-0.4-0.2-0.7-0.2c-0.4,0-1.2,0.1-2.2,0.7L77.4,280.6c-3.2,1.9-5.9,6.3-5.7,9.7c0,0.6,0.2,1.7,0.9,2.2
					C72.8,292.6,73.1,292.7,73.5,292.7L73.5,292.7z"/>
				<g>
					<path class="st6" d="M80.6,281.4c-1.2,0.7-2.2,2.4-2.2,3.8c0,1.4,1,2,2.2,1.3c1.2-0.7,2.2-2.4,2.2-3.8
						C82.8,281.3,81.8,280.7,80.6,281.4z"/>
					<path class="st6" d="M80.6,281.4c-1.2,0.7-2.2,2.4-2.2,3.8c0,1.4,1,2,2.2,1.3c1.2-0.7,2.2-2.4,2.2-3.8
						C82.8,281.3,81.8,280.7,80.6,281.4z"/>
					<path class="st6" d="M100.9,269.7c-1.2,0.7-2.2,2.4-2.2,3.8s1,2,2.2,1.3c1.2-0.7,2.2-2.4,2.2-3.8
						C103.1,269.6,102.1,269,100.9,269.7z"/>
					<path class="st6" d="M121.1,258c-1.2,0.7-2.2,2.4-2.2,3.8s1,2,2.2,1.3c1.2-0.7,2.2-2.4,2.2-3.8
						C123.3,257.9,122.3,257.3,121.1,258z"/>
					<path class="st6" d="M141.4,246.4c-1.2,0.7-2.2,2.4-2.2,3.8c0,1.4,1,2,2.2,1.3c1.2-0.7,2.2-2.4,2.2-3.8
						C143.6,246.2,142.6,245.6,141.4,246.4z"/>
					<path class="st6" d="M161.6,234.7c-1.2,0.7-2.2,2.4-2.2,3.8c0,1.4,1,2,2.2,1.3c1.2-0.7,2.2-2.4,2.2-3.8
						C163.8,234.5,162.8,234,161.6,234.7z"/>
					<path class="st6" d="M181.9,223c-1.2,0.7-2.2,2.4-2.2,3.8c0,1.4,1,2,2.2,1.3c1.2-0.7,2.2-2.4,2.2-3.8
						C184.1,222.8,183.1,222.3,181.9,223z"/>
					<path class="st6" d="M202.1,211.3c-1.2,0.7-2.2,2.4-2.2,3.8c0,1.4,1,2,2.2,1.3c1.2-0.7,2.2-2.4,2.2-3.8
						C204.3,211.2,203.3,210.6,202.1,211.3z"/>
					<path class="st6" d="M222.4,199.6c-1.2,0.7-2.2,2.4-2.2,3.8c0,1.4,1,2,2.2,1.3c1.2-0.7,2.2-2.4,2.2-3.8
						C224.6,199.5,223.6,198.9,222.4,199.6z"/>
				</g>
				<g>
					<polygon class="st24" points="90.6,273 88.4,274.3 88.4,271.8 90.6,270.5 					"/>
					<polygon class="st24" points="90.4,273.2 88.2,274.4 88.2,271.9 90.4,270.6 					"/>
					<polygon class="st24" points="110.5,261.5 108.3,262.8 108.3,260.3 110.5,259 					"/>
					<polygon class="st24" points="130.7,249.9 128.5,251.2 128.5,248.7 130.7,247.4 					"/>
					<polygon class="st24" points="150.8,238.3 148.6,239.6 148.6,237 150.8,235.7 					"/>
					<polygon class="st24" points="171,226.6 168.7,227.9 168.7,225.4 171,224.1 					"/>
					<polygon class="st24" points="191.1,215 188.9,216.3 188.9,213.8 191.1,212.5 					"/>
					<polygon class="st24" points="211.2,203.4 209,204.7 209,202.1 211.2,200.9 					"/>
				</g>
				<g>
					<polygon class="st24" points="88.4,271.8 90.6,270.5 46.2,244.9 43.9,246.1 					"/>
					<polygon class="st24" points="88.2,271.9 90.4,270.6 45.9,245 43.7,246.3 					"/>
					<polygon class="st24" points="108.3,260.3 110.5,259 66.1,233.3 63.9,234.6 					"/>
					<polygon class="st24" points="128.5,248.7 130.7,247.4 86.2,221.7 84,223 					"/>
					<polygon class="st24" points="148.6,237 150.8,235.7 106.4,210.1 104.1,211.4 					"/>
					<polygon class="st24" points="168.7,225.4 171,224.1 126.5,198.5 124.3,199.7 					"/>
					<polygon class="st24" points="188.9,213.8 191.1,212.5 146.6,186.8 144.4,188.1 					"/>
					<polygon class="st24" points="209,202.1 211.2,200.9 166.8,175.2 164.6,176.5 					"/>
				</g>
			</g>
		</g>
		<g>
			<g>
				<g>
					<polygon class="st2" points="354.7,365.8 371.9,375.7 371.9,379.3 354.7,369.4 					"/>
					<polygon class="st21" points="354.7,365.8 371.9,375.7 371.9,379.3 354.7,369.4 					"/>
					<polygon class="st2" points="371.9,375.7 420.6,347.6 420.6,351.2 371.9,379.3 					"/>
					<polygon class="st22" points="371.9,375.7 420.6,347.6 420.6,351.2 371.9,379.3 					"/>
					<polygon class="st2" points="371.9,375.7 354.7,365.8 403.4,337.7 420.6,347.6 					"/>
					<polygon class="st23" points="371.9,375.7 354.7,365.8 403.4,337.7 420.6,347.6 					"/>
				</g>
				<g>
					<polygon class="st7" points="364.9,338.8 364.9,367 367.8,368.7 367.8,340.5 					"/>
					<polygon class="st6" points="370.7,338.8 370.7,367 367.8,368.7 367.8,340.5 					"/>
				</g>
				<polygon class="st8" points="358.7,331.7 375.9,341.6 375.9,345.2 358.7,335.3 				"/>
				<polygon class="st7" points="375.9,345.2 379,343.4 375.9,341.6 				"/>
			</g>
			<g>
				<g>
					<polygon class="st2" points="283.6,324.8 300.8,334.7 300.8,338.3 283.6,328.4 					"/>
					<polygon class="st21" points="283.6,324.8 300.8,334.7 300.8,338.3 283.6,328.4 					"/>
					<polygon class="st2" points="300.8,334.7 349.5,306.5 349.5,310.1 300.8,338.3 					"/>
					<polygon class="st22" points="300.8,334.7 349.5,306.5 349.5,310.1 300.8,338.3 					"/>
					<polygon class="st2" points="300.8,334.7 283.6,324.8 332.3,296.6 349.5,306.5 					"/>
					<polygon class="st23" points="300.8,334.7 283.6,324.8 332.3,296.6 349.5,306.5 					"/>
				</g>
				<g>
					<polygon class="st7" points="293.8,297.8 293.8,326 296.7,327.7 296.7,299.5 					"/>
					<polygon class="st6" points="299.6,297.8 299.6,326 296.7,327.7 296.7,299.5 					"/>
				</g>
				<polygon class="st8" points="287.6,290.7 304.8,300.6 304.8,304.2 287.6,294.3 				"/>
				<polygon class="st7" points="304.8,304.2 307.9,302.4 304.8,300.6 				"/>
			</g>
			<g>
				<g>
					<polygon class="st2" points="212.5,283.7 229.7,293.6 229.7,297.2 212.5,287.3 					"/>
					<polygon class="st21" points="212.5,283.7 229.7,293.6 229.7,297.2 212.5,287.3 					"/>
					<polygon class="st2" points="229.7,293.6 278.4,265.5 278.4,269.1 229.7,297.2 					"/>
					<polygon class="st22" points="229.7,293.6 278.4,265.5 278.4,269.1 229.7,297.2 					"/>
					<polygon class="st2" points="229.7,293.6 212.5,283.7 261.2,255.6 278.4,265.5 					"/>
					<polygon class="st23" points="229.7,293.6 212.5,283.7 261.2,255.6 278.4,265.5 					"/>
				</g>
				<g>
					<polygon class="st7" points="222.7,256.7 222.7,284.9 225.6,286.6 225.6,258.4 					"/>
					<polygon class="st6" points="228.5,256.7 228.5,284.9 225.6,286.6 225.6,258.4 					"/>
				</g>
				<polygon class="st8" points="216.5,249.6 233.7,259.6 233.7,263.2 216.5,253.2 				"/>
				<polygon class="st7" points="233.7,263.2 236.9,261.4 233.7,259.6 				"/>
			</g>
			<g>
				<path class="st2" d="M438.1,310.8L247.3,200.7c-2-1.2-3.9-1.3-5.2-0.6l-44.5,25.7c-1.2,0.7-1.9,2.1-1.9,4.2
					c0,4.3,3.2,9.5,7.1,11.8l190.3,109.8c2.1,1.2,4,1.3,5.4,0.5l44.4-25.6c1.2-0.7,2-2.1,2-4C445.1,318.3,442,313.1,438.1,310.8z"/>
				<path class="st2" d="M202.8,241.7l190.3,109.8c2.1,1.2,4,1.3,5.4,0.5c1.2-0.7,1.9-2.1,2-4c0.1-4.2-2.9-9.4-6.8-11.6L202.8,226.3
					c-2-1.2-3.9-1.3-5.2-0.6c-1.2,0.7-1.9,2.1-1.9,4.2C195.7,234.2,198.9,239.4,202.8,241.7z"/>
				<path class="st24" d="M202.8,241.7l190.3,109.8c2.1,1.2,4,1.3,5.4,0.5c1.2-0.7,1.9-2.1,2-4c0.1-4.2-2.9-9.4-6.8-11.6
					L202.8,226.3c-2-1.2-3.9-1.3-5.2-0.6c-1.2,0.7-1.9,2.1-1.9,4.2C195.7,234.2,198.9,239.4,202.8,241.7z"/>
				<path class="st8" d="M396.5,350.4c-0.5,0-1.3-0.1-2.3-0.8L203.9,239.8c-3.3-1.9-6-6.4-6-9.9c0-1.1,0.3-2,0.8-2.3
					c0.2-0.1,0.4-0.2,0.7-0.2c0.4,0,1.2,0.1,2.2,0.7l190.8,110.2c3.2,1.9,5.9,6.3,5.7,9.7c0,0.6-0.2,1.7-0.9,2.2
					C397.1,350.3,396.8,350.4,396.5,350.4L396.5,350.4z"/>
				<g>
					<path class="st6" d="M389.3,339.1c1.2,0.7,2.2,2.4,2.2,3.8c0,1.4-1,2-2.2,1.3c-1.2-0.7-2.2-2.4-2.2-3.8
						C387.1,339,388.1,338.4,389.3,339.1z"/>
					<path class="st6" d="M369.1,327.4c1.2,0.7,2.2,2.4,2.2,3.8c0,1.4-1,2-2.2,1.3c-1.2-0.7-2.2-2.4-2.2-3.8
						C366.9,327.3,367.9,326.7,369.1,327.4z"/>
					<path class="st6" d="M348.9,315.8c1.2,0.7,2.2,2.4,2.2,3.8c0,1.4-1,2-2.2,1.3c-1.2-0.7-2.2-2.4-2.2-3.8
						C346.6,315.6,347.6,315,348.9,315.8z"/>
					<path class="st6" d="M328.6,304.1c1.2,0.7,2.2,2.4,2.2,3.8c0,1.4-1,2-2.2,1.3c-1.2-0.7-2.2-2.4-2.2-3.8
						C326.4,303.9,327.4,303.4,328.6,304.1z"/>
					<path class="st6" d="M308.4,292.4c1.2,0.7,2.2,2.4,2.2,3.8c0,1.4-1,2-2.2,1.3c-1.2-0.7-2.2-2.4-2.2-3.8
						C306.1,292.2,307.1,291.7,308.4,292.4z"/>
					<path class="st6" d="M288.1,280.7c1.2,0.7,2.2,2.4,2.2,3.8c0,1.4-1,2-2.2,1.3c-1.2-0.7-2.2-2.4-2.2-3.8
						C285.9,280.6,286.9,280,288.1,280.7z"/>
					<path class="st6" d="M267.9,269c1.2,0.7,2.2,2.4,2.2,3.8s-1,2-2.2,1.3c-1.2-0.7-2.2-2.4-2.2-3.8
						C265.6,268.9,266.6,268.3,267.9,269z"/>
					<path class="st6" d="M247.6,257.3c1.2,0.7,2.2,2.4,2.2,3.8c0,1.4-1,2-2.2,1.3c-1.2-0.7-2.2-2.4-2.2-3.8
						C245.4,257.2,246.4,256.6,247.6,257.3z"/>
					<path class="st6" d="M227.4,245.6c1.2,0.7,2.2,2.4,2.2,3.8c0,1.4-1,2-2.2,1.3c-1.2-0.7-2.2-2.4-2.2-3.8
						C225.1,245.5,226.1,244.9,227.4,245.6z"/>
					<path class="st6" d="M207.1,233.9c1.2,0.7,2.2,2.4,2.2,3.8c0,1.4-1,2-2.2,1.3c-1.2-0.7-2.2-2.4-2.2-3.8
						C204.9,233.8,205.9,233.2,207.1,233.9z"/>
				</g>
				<g>
					<polygon class="st24" points="379.3,330.8 381.6,332 381.6,329.5 379.3,328.2 					"/>
					<polygon class="st24" points="359.2,319.1 361.4,320.4 361.4,317.9 359.2,316.6 					"/>
					<polygon class="st24" points="339.1,307.5 341.3,308.8 341.3,306.3 339.1,305 					"/>
					<polygon class="st24" points="318.9,295.9 321.1,297.2 321.2,294.6 318.9,293.3 					"/>
					<polygon class="st24" points="298.8,284.2 301,285.5 301,283 298.8,281.7 					"/>
					<polygon class="st24" points="278.6,272.6 280.9,273.9 280.9,271.4 278.6,270.1 					"/>
					<polygon class="st24" points="258.5,261 260.7,262.3 260.7,259.7 258.5,258.5 					"/>
					<polygon class="st24" points="238.4,249.4 240.6,250.6 240.6,248.1 238.4,246.8 					"/>
					<polygon class="st24" points="218.2,237.7 220.4,239 220.4,236.5 218.2,235.2 					"/>
				</g>
				<g>
					<polygon class="st24" points="381.6,329.5 379.3,328.2 423.8,302.6 426,303.9 					"/>
					<polygon class="st24" points="361.4,317.9 359.2,316.6 403.7,290.9 405.9,292.2 					"/>
					<polygon class="st24" points="341.3,306.3 339.1,305 383.5,279.3 385.7,280.6 					"/>
					<polygon class="st24" points="321.2,294.6 318.9,293.3 363.4,267.7 365.6,269 					"/>
					<polygon class="st24" points="301,283 298.8,281.7 343.2,256.1 345.5,257.3 					"/>
					<polygon class="st24" points="280.9,271.4 278.6,270.1 323.1,244.4 325.3,245.7 					"/>
					<polygon class="st24" points="260.7,259.7 258.5,258.5 303,232.8 305.2,234.1 					"/>
					<polygon class="st24" points="240.6,248.1 238.4,246.8 282.8,221.2 285,222.5 					"/>
					<polygon class="st24" points="220.4,236.5 218.2,235.2 262.7,209.5 264.9,210.8 					"/>
				</g>
			</g>
		</g>
	</g>
</g>
<g id="Boxes">
	<g id="Box_5_">
		<g id="Box_6_">
			<g id="Back_box_2_">
				<g id="XMLID_5955_">
					<polygon id="XMLID_5956_" points="61.7,245.9 87.5,231 113.3,245.9 87.5,260.8 					"/>
				</g>
				<polygon id="XMLID_5954_" class="st7" points="87.5,231 87.5,205.5 61.2,220.7 83.2,233.5 				"/>
				<g id="XMLID_5952_">
					<polygon id="XMLID_5953_" class="st6" points="87.5,205.5 87.5,231 91.8,233.5 113.9,220.7 					"/>
				</g>
			</g>
			<g id="Front_Box_2_">
				<g id="XMLID_5945_">
					<polygon id="XMLID_5946_" class="st6" points="61.2,220.7 61.2,245.6 87.5,260.8 87.5,236 					"/>
				</g>
				<g id="XMLID_5939_">
					<polygon class="st7" points="87.5,236 87.5,260.8 113.9,245.6 113.9,220.7 					"/>
					<polygon id="XMLID_5940_" class="st8" points="87.5,236 88,259.9 107.2,249.5 87.5,260.8 					"/>
				</g>
				<g id="XMLID_2983_" class="st25">
					<g id="XMLID_2990_">
						<g id="XMLID_2993_">
							<path id="XMLID_5936_" class="st1" d="M94.6,254.3c-0.1,0-0.1-0.1-0.1-0.1V251c0-0.1,0.1-0.1,0.1-0.1c0.1,0,0.1,0.1,0.1,0.1
								v3.2C94.7,254.2,94.7,254.3,94.6,254.3z"/>
						</g>
						<g id="XMLID_2991_">
							<path id="XMLID_2992_" class="st1" d="M94.2,252.1C94.2,252.1,94.1,252.1,94.2,252.1c-0.1,0-0.2-0.1-0.1-0.2l0.5-1.2l0.6,0.6
								c0.1,0.1,0,0.1,0,0.2c-0.1,0-0.1,0-0.2,0l-0.3-0.3l-0.3,0.7C94.3,252.1,94.2,252.1,94.2,252.1z"/>
						</g>
					</g>
					<g id="XMLID_2985_">
						<g id="XMLID_2988_">
							<path id="XMLID_2989_" class="st1" d="M95.9,253.5c-0.1,0-0.1-0.1-0.1-0.1v-3.2c0-0.1,0.1-0.1,0.1-0.1c0.1,0,0.1,0.1,0.1,0.1
								v3.2C96,253.5,96,253.5,95.9,253.5z"/>
						</g>
						<g id="XMLID_2986_">
							<path id="XMLID_2987_" class="st1" d="M95.5,251.3C95.5,251.3,95.4,251.3,95.5,251.3c-0.1,0-0.2-0.1-0.1-0.2l0.5-1.2l0.6,0.6
								c0.1,0.1,0,0.1,0,0.2c-0.1,0.1-0.1,0-0.2,0l-0.3-0.3l-0.3,0.7C95.6,251.3,95.5,251.3,95.5,251.3z"/>
						</g>
					</g>
				</g>
				<g id="XMLID_2959_" class="st25">
					<g id="XMLID_2980_">
						<path id="XMLID_2982_" class="st1" d="M90.8,256.4c-0.1,0-0.1,0-0.2,0c-0.1-0.1-0.2-0.2-0.2-0.3v-0.4c0-0.1,0.1-0.1,0.1-0.1
							c0.1,0,0.1,0.1,0.1,0.1v0.4c0,0.1,0,0.1,0,0.1c0,0,0,0,0.1,0c0.1-0.1,0.3-0.4,0.3-0.6v-1.6c0-0.1,0.1-0.1,0.1-0.1
							c0.1,0,0.1,0.1,0.1,0.1v1.6c0,0.4-0.2,0.7-0.4,0.9C91,256.4,90.9,256.4,90.8,256.4z"/>
					</g>
					<g id="XMLID_2967_">
						<path id="XMLID_2977_" class="st1" d="M89.4,255.1v-0.2c0-1.1,0.8-2.5,1.8-3.1c0.5-0.3,1-0.3,1.4-0.1c0.4,0.2,0.6,0.7,0.6,1.2
							v0.1L89.4,255.1z M92,251.8c-0.2,0-0.5,0.1-0.7,0.2c-0.8,0.5-1.5,1.6-1.6,2.6l3.2-1.8c0-0.4-0.2-0.8-0.4-0.9
							C92.3,251.8,92.1,251.8,92,251.8z"/>
					</g>
				</g>
			</g>
		</g>
		<polygon class="st8" points="87.5,205.5 61.2,220.7 87.5,236 113.9,220.7 		"/>
		<polygon class="st26" points="61.2,220.7 87.5,235 113.9,220.7 87.5,236 		"/>
		<polygon class="st2" points="72.1,214.4 98.5,229.6 102.5,227.3 76.2,212 		"/>
		<g>
			<polygon class="st2" points="102.5,227.3 102.5,232.4 102,232.1 101.5,233 101,232.7 100.5,233.6 100,233.3 99.5,234.2 99,233.9 
				98.5,234.8 98.5,229.6 			"/>
			<polygon class="st27" points="102.5,227.3 102.5,232.4 102,232.1 101.5,233 101,232.7 100.5,233.6 100,233.3 99.5,234.2 
				99,233.9 98.5,234.8 98.5,229.6 			"/>
		</g>
	</g>
	<g id="Box_7_">
		<g id="Box_8_">
			<g id="Back_box_3_">
				<g id="XMLID_6016_">
					<polygon id="XMLID_6017_" points="122.6,210.7 148.4,195.8 174.3,210.7 148.4,225.6 					"/>
				</g>
				<polygon id="XMLID_5973_" class="st7" points="148.4,195.8 148.4,170.3 122.1,185.5 144.1,198.3 				"/>
				<g id="XMLID_5970_">
					<polygon id="XMLID_5971_" class="st6" points="148.4,170.3 148.4,195.8 152.7,198.3 174.8,185.5 					"/>
				</g>
			</g>
			<g id="Front_Box_3_">
				<g id="XMLID_5968_">
					<polygon id="XMLID_5969_" class="st6" points="122.1,185.5 122.1,210.4 148.4,225.6 148.4,200.8 					"/>
				</g>
				<g id="XMLID_5966_">
					<polygon class="st7" points="148.4,200.8 148.4,225.6 174.8,210.4 174.8,185.5 					"/>
					<polygon id="XMLID_5967_" class="st8" points="148.4,200.8 149,224.7 168.1,214.3 148.4,225.6 					"/>
				</g>
				<g id="XMLID_5948_" class="st25">
					<g id="XMLID_5959_">
						<g id="XMLID_5962_">
							<path id="XMLID_5965_" class="st1" d="M155.5,219.1c-0.1,0-0.1-0.1-0.1-0.1v-3.2c0-0.1,0.1-0.1,0.1-0.1
								c0.1,0,0.1,0.1,0.1,0.1v3.2C155.7,219,155.6,219.1,155.5,219.1z"/>
						</g>
						<g id="XMLID_5960_">
							<path id="XMLID_5961_" class="st1" d="M155.1,216.9C155.1,216.9,155.1,216.9,155.1,216.9c-0.1,0-0.2-0.1-0.1-0.2l0.5-1.2
								l0.6,0.6c0.1,0.1,0,0.1,0,0.2c-0.1,0-0.1,0-0.2,0l-0.3-0.3l-0.3,0.7C155.2,216.9,155.2,216.9,155.1,216.9z"/>
						</g>
					</g>
					<g id="XMLID_5949_">
						<g id="XMLID_5957_">
							<path id="XMLID_5958_" class="st1" d="M156.8,218.4c-0.1,0-0.1-0.1-0.1-0.1v-3.2c0-0.1,0.1-0.1,0.1-0.1
								c0.1,0,0.1,0.1,0.1,0.1v3.2C157,218.3,156.9,218.4,156.8,218.4z"/>
						</g>
						<g id="XMLID_5950_">
							<path id="XMLID_5951_" class="st1" d="M156.4,216.2C156.4,216.2,156.4,216.2,156.4,216.2c-0.1,0-0.2-0.1-0.1-0.2l0.5-1.2
								l0.6,0.6c0.1,0.1,0,0.1,0,0.2c-0.1,0.1-0.1,0-0.2,0l-0.3-0.3l-0.3,0.7C156.5,216.1,156.5,216.2,156.4,216.2z"/>
						</g>
					</g>
				</g>
				<g id="XMLID_5937_" class="st25">
					<g id="XMLID_5944_">
						<path id="XMLID_5947_" class="st1" d="M151.8,221.2c-0.1,0-0.1,0-0.2,0c-0.1-0.1-0.2-0.2-0.2-0.3v-0.4c0-0.1,0.1-0.1,0.1-0.1
							c0.1,0,0.1,0.1,0.1,0.1v0.4c0,0.1,0,0.1,0,0.1c0,0,0,0,0.1,0c0.1-0.1,0.3-0.4,0.3-0.6v-1.6c0-0.1,0.1-0.1,0.1-0.1
							c0.1,0,0.1,0.1,0.1,0.1v1.6c0,0.4-0.2,0.7-0.4,0.9C151.9,221.2,151.8,221.2,151.8,221.2z"/>
					</g>
					<g id="XMLID_5938_">
						<path id="XMLID_5941_" class="st1" d="M150.3,219.9v-0.2c0-1.1,0.8-2.5,1.8-3.1c0.5-0.3,1-0.3,1.4-0.1
							c0.4,0.2,0.6,0.7,0.6,1.2v0.1L150.3,219.9z M152.9,216.6c-0.2,0-0.5,0.1-0.7,0.2c-0.8,0.5-1.5,1.6-1.6,2.6l3.2-1.8
							c0-0.4-0.2-0.8-0.4-0.9C153.2,216.6,153.1,216.6,152.9,216.6z"/>
					</g>
				</g>
			</g>
		</g>
		<polygon class="st8" points="148.4,170.3 122.1,185.5 148.4,200.8 174.8,185.5 		"/>
		<polygon class="st26" points="122.1,185.5 148.4,199.8 174.8,185.5 148.4,200.8 		"/>
		<polygon class="st2" points="133,179.2 159.4,194.4 163.5,192.1 137.1,176.9 		"/>
		<g>
			<polygon class="st2" points="163.5,192.1 163.5,197.2 163,197 162.5,197.8 161.9,197.5 161.4,198.4 160.9,198.1 160.4,199 
				159.9,198.7 159.4,199.6 159.4,194.4 			"/>
			<polygon class="st27" points="163.5,192.1 163.5,197.2 163,197 162.5,197.8 161.9,197.5 161.4,198.4 160.9,198.1 160.4,199 
				159.9,198.7 159.4,199.6 159.4,194.4 			"/>
		</g>
	</g>
	<g id="Open_Box_1_">
		<g id="Box_1_">
			<g id="Back_box">
				<g id="XMLID_6026_">
					<polygon id="XMLID_6029_" points="228.2,230.7 254.1,215.8 279.9,230.7 254.1,245.6 					"/>
				</g>
				<polygon id="XMLID_6025_" class="st7" points="254.1,215.8 254.1,190.3 227.7,205.5 249.7,218.3 				"/>
				<g id="XMLID_6023_">
					<polygon id="XMLID_6024_" class="st6" points="254.1,190.3 254.1,215.8 258.4,218.3 280.4,205.5 					"/>
				</g>
			</g>
			<g id="Front_Box">
				<g id="XMLID_5934_">
					<polygon id="XMLID_5935_" class="st6" points="227.7,205.5 227.7,230.4 254.1,245.6 254.1,220.8 					"/>
				</g>
				<g id="XMLID_5931_">
					<polygon id="XMLID_5933_" class="st8" points="227.7,205.5 219.3,217.2 245.7,232.5 254.1,220.8 					"/>
					<polygon id="XMLID_5932_" class="st28" points="219.3,217.2 245.5,231.8 254.1,220.8 245.7,232.5 					"/>
				</g>
				<g id="XMLID_5928_">
					<polyline id="XMLID_5930_" class="st7" points="280.4,205.5 280.4,230.4 254.1,245.6 254.1,220.8 					"/>
					<polygon id="XMLID_5929_" class="st8" points="254.1,220.8 254.6,244.7 273.7,234.3 254.1,245.6 					"/>
				</g>
				<g id="XMLID_5926_">
					<polygon id="XMLID_5927_" class="st8" points="280.4,205.5 288.8,217.2 262.4,232.5 254.1,220.8 					"/>
				</g>
				<g id="XMLID_5689_" class="st25">
					<g id="XMLID_5921_">
						<g id="XMLID_5924_">
							<path id="XMLID_5925_" class="st1" d="M261.1,239.1c-0.1,0-0.1-0.1-0.1-0.1v-3.2c0-0.1,0.1-0.1,0.1-0.1s0.1,0.1,0.1,0.1v3.2
								C261.3,239.1,261.2,239.1,261.1,239.1z"/>
						</g>
						<g id="XMLID_5922_">
							<path id="XMLID_5923_" class="st1" d="M260.7,236.9C260.7,236.9,260.7,236.9,260.7,236.9c-0.1,0-0.2-0.1-0.1-0.2l0.5-1.2
								l0.6,0.6c0.1,0.1,0,0.1,0,0.2c-0.1,0-0.1,0-0.2,0l-0.3-0.3l-0.3,0.7C260.8,236.9,260.8,236.9,260.7,236.9z"/>
						</g>
					</g>
					<g id="XMLID_5903_">
						<g id="XMLID_5919_">
							<path id="XMLID_5920_" class="st1" d="M262.4,238.4c-0.1,0-0.1-0.1-0.1-0.1v-3.2c0-0.1,0.1-0.1,0.1-0.1
								c0.1,0,0.1,0.1,0.1,0.1v3.2C262.6,238.3,262.5,238.4,262.4,238.4z"/>
						</g>
						<g id="XMLID_5917_">
							<path id="XMLID_5918_" class="st1" d="M262,236.2C262,236.2,262,236.2,262,236.2c-0.1,0-0.2-0.1-0.1-0.2l0.5-1.2l0.6,0.6
								c0.1,0.1,0,0.1,0,0.2c-0.1,0.1-0.1,0-0.2,0l-0.3-0.3l-0.3,0.7C262.1,236.1,262.1,236.2,262,236.2z"/>
						</g>
					</g>
				</g>
				<g id="XMLID_2919_" class="st25">
					<g id="XMLID_3523_">
						<path id="XMLID_5688_" class="st1" d="M257.4,241.3c-0.1,0-0.1,0-0.2,0c-0.1-0.1-0.2-0.2-0.2-0.3v-0.4c0-0.1,0.1-0.1,0.1-0.1
							c0.1,0,0.1,0.1,0.1,0.1v0.4c0,0.1,0,0.1,0,0.1c0,0,0,0,0.1,0c0.1-0.1,0.3-0.4,0.3-0.6v-1.6c0-0.1,0.1-0.1,0.1-0.1
							c0.1,0,0.1,0.1,0.1,0.1v1.6c0,0.4-0.2,0.7-0.4,0.9C257.5,241.2,257.4,241.3,257.4,241.3z"/>
					</g>
					<g id="XMLID_2994_">
						<path id="XMLID_2995_" class="st1" d="M255.9,240v-0.2c0-1.1,0.8-2.5,1.8-3.1c0.5-0.3,1-0.3,1.4-0.1c0.4,0.2,0.6,0.7,0.6,1.2
							v0.1L255.9,240z M258.5,236.6c-0.2,0-0.5,0.1-0.7,0.2c-0.8,0.5-1.5,1.6-1.6,2.6l3.2-1.8c0-0.4-0.2-0.8-0.4-0.9
							C258.8,236.7,258.7,236.6,258.5,236.6z"/>
					</g>
				</g>
			</g>
		</g>
	</g>
	<g id="Open_Box">
		<g id="Box_4_">
			<g id="Back_box_1_">
				<g id="XMLID_2925_">
					<polygon id="XMLID_2926_" points="325.7,287 351.5,272.1 377.4,287 351.5,301.9 					"/>
				</g>
				<polygon id="XMLID_2922_" class="st7" points="351.5,272.1 351.5,246.6 325.2,261.8 347.2,274.6 				"/>
				<g id="XMLID_2876_">
					<polygon id="XMLID_2918_" class="st6" points="351.5,246.6 351.5,272.1 355.8,274.6 377.9,261.8 					"/>
				</g>
			</g>
			<g id="Front_Box_1_">
				<g id="XMLID_1230_">
					<polygon id="XMLID_1232_" class="st6" points="325.2,261.8 325.2,286.7 351.5,301.9 351.5,277.1 					"/>
				</g>
				<g id="XMLID_1223_">
					<polygon id="XMLID_1227_" class="st8" points="325.2,261.8 316.8,273.5 343.2,288.8 351.5,277.1 					"/>
					<polygon id="XMLID_1226_" class="st28" points="316.8,273.5 343,288.1 351.5,277.1 343.2,288.8 					"/>
				</g>
				<g id="XMLID_1204_">
					<polyline id="XMLID_1222_" class="st7" points="377.9,261.8 377.9,286.7 351.5,301.9 351.5,277.1 					"/>
					<polygon id="XMLID_1205_" class="st8" points="351.5,277.1 352.1,301 371.2,290.6 351.5,301.9 					"/>
				</g>
				<g id="XMLID_1162_">
					<polygon id="XMLID_1203_" class="st8" points="377.9,261.8 386.3,273.5 359.9,288.8 351.5,277.1 					"/>
				</g>
				<g id="XMLID_944_" class="st25">
					<g id="XMLID_1105_">
						<g id="XMLID_1137_">
							<path id="XMLID_1141_" class="st1" d="M358.6,295.4c-0.1,0-0.1-0.1-0.1-0.1v-3.2c0-0.1,0.1-0.1,0.1-0.1s0.1,0.1,0.1,0.1v3.2
								C358.8,295.3,358.7,295.4,358.6,295.4z"/>
						</g>
						<g id="XMLID_1134_">
							<path id="XMLID_1136_" class="st1" d="M358.2,293.2C358.2,293.2,358.2,293.2,358.2,293.2c-0.1,0-0.2-0.1-0.1-0.2l0.5-1.2
								l0.6,0.6c0.1,0.1,0,0.1,0,0.2c-0.1,0-0.1,0-0.2,0l-0.3-0.3l-0.3,0.7C358.3,293.2,358.3,293.2,358.2,293.2z"/>
						</g>
					</g>
					<g id="XMLID_1028_">
						<g id="XMLID_1092_">
							<path id="XMLID_1093_" class="st1" d="M359.9,294.7c-0.1,0-0.1-0.1-0.1-0.1v-3.2c0-0.1,0.1-0.1,0.1-0.1
								c0.1,0,0.1,0.1,0.1,0.1v3.2C360.1,294.6,360,294.7,359.9,294.7z"/>
						</g>
						<g id="XMLID_1029_">
							<path id="XMLID_1030_" class="st1" d="M359.5,292.5C359.5,292.5,359.5,292.5,359.5,292.5c-0.1,0-0.2-0.1-0.1-0.2l0.5-1.2
								l0.6,0.6c0.1,0.1,0,0.1,0,0.2c-0.1,0.1-0.1,0-0.2,0l-0.3-0.3l-0.3,0.7C359.6,292.4,359.6,292.5,359.5,292.5z"/>
						</g>
					</g>
				</g>
				<g id="XMLID_488_" class="st25">
					<g id="XMLID_942_">
						<path id="XMLID_943_" class="st1" d="M354.9,297.5c-0.1,0-0.1,0-0.2,0c-0.1-0.1-0.2-0.2-0.2-0.3v-0.4c0-0.1,0.1-0.1,0.1-0.1
							c0.1,0,0.1,0.1,0.1,0.1v0.4c0,0.1,0,0.1,0,0.1c0,0,0,0,0.1,0c0.1-0.1,0.3-0.4,0.3-0.6V295c0-0.1,0.1-0.1,0.1-0.1
							c0.1,0,0.1,0.1,0.1,0.1v1.6c0,0.4-0.2,0.7-0.4,0.9C355,297.5,354.9,297.5,354.9,297.5z"/>
					</g>
					<g id="XMLID_490_">
						<path id="XMLID_594_" class="st1" d="M353.4,296.2V296c0-1.1,0.8-2.5,1.8-3.1c0.5-0.3,1-0.3,1.4-0.1c0.4,0.2,0.6,0.7,0.6,1.2
							v0.1L353.4,296.2z M356,292.9c-0.2,0-0.5,0.1-0.7,0.2c-0.8,0.5-1.5,1.6-1.6,2.6l3.2-1.8c0-0.4-0.2-0.8-0.4-0.9
							C356.3,292.9,356.2,292.9,356,292.9z"/>
					</g>
				</g>
			</g>
		</g>
	</g>
</g>
<g id="Gears_1_">
	<g id="Gears">
		<g>
			<path class="st7" d="M304.3,372.5l0-5.2c0-0.6-0.5-1.1-1.1-1.2l-8.3-0.5l0-11.7l0,0c0-0.2-0.1-0.5-0.4-0.6l-8.8-5.1
				c-0.5-0.3-1.4-0.3-1.9-0.1l-8.9,4.1c-0.5,0.3-1.5,0.3-2,0.1c-2.2-0.7-4.5-1.2-6.9-1.6c-0.6-0.1-1.2-0.7-1.3-1.2l-1.1-5.9
				c-0.1-0.6-0.7-1.1-1.3-1.1l-12.9,0c-0.6,0-1.2,0.5-1.3,1.1l-1.1,5.9c-0.1,0.6-0.7,1.1-1.3,1.2c-2.4,0.4-4.7,0.9-6.9,1.6
				c-0.6,0.2-1.5,0.1-2-0.1l-8.9-4.1c-0.5-0.3-1.4-0.2-1.9,0.1l-8.8,5.1c-0.3,0.2-0.4,0.4-0.4,0.6c0,0,0,0,0,0l0,11.7l-8.3,0.5
				c-0.6,0-1.1,0.6-1.1,1.2l0,6.5c0,0,0,0,0,0l0,4.6l0,0l0,6.5l0,0l0,0c0,0.1,0.1,0.2,0.2,0.4c0.1,0.1,0.1,0.3,0.2,0.4
				c0.1,0.2,0.4,0.2,0.6,0.3c0.1,0,0.1,0.1,0.2,0.1l0.2,0l8.2,0.5l0,0l0,6.7h0l0,0l0,0.1l0,2.1l0,2.8l0,0c0,0,0,0,0,0
				c0,0.1,0,0.2,0.1,0.2c0,0,0,0,0,0c0.1,0.1,0.2,0.2,0.3,0.3l8.8,5.1c0,0,0,0,0,0c0.2,0.1,0.5,0.2,0.8,0.2c0.1,0,0.1,0,0.2,0
				c0.1,0,0.2,0,0.3,0v-0.1c0.2,0,0.4,0,0.5-0.1l8.9-4.1c0.5-0.3,1.5-0.3,2-0.1c2.2,0.7,4.5,1.2,6.9,1.6c0.6,0.1,1.2,0.7,1.3,1.2
				l1.1,5.9c0,0.1,0.1,0.2,0.2,0.4l0,0.1c0,0.1,0.1,0.1,0.2,0.2c0.1,0.1,0.1,0.1,0.2,0.1c0.2,0.2,0.5,0.3,0.7,0.3l12.9,0
				c0.3,0,0.6-0.1,0.8-0.3l0,0c0.2-0.2,0.4-0.5,0.5-0.8l1.1-5.9c0.1-0.6,0.7-1.1,1.3-1.2c2.4-0.4,4.7-0.9,6.9-1.6
				c0.6-0.2,1.5-0.1,2,0.1l8.9,4.1c0.2,0.1,0.5,0.2,0.8,0.2l0,0c0.4,0,0.8-0.1,1.1-0.2l8.8-5.1c0.3-0.2,0.4-0.4,0.4-0.6l0,0l0-11.7
				l8.3-0.5c0.6,0,1.1-0.6,1.1-1.2l0-12.2C304.3,372.6,304.3,372.5,304.3,372.5z M272.4,377.9c-0.5,0.4-1.1,0.8-1.7,1.1
				c-8.2,4.7-21.4,4.7-29.6,0c-0.6-0.4-1.2-0.7-1.7-1.1c0.5-0.4,1.1-0.7,1.7-1.1c8.2-4.7,21.4-4.7,29.6,0
				C271.3,377.2,271.9,377.5,272.4,377.9z"/>
			<path class="st6" d="M304.3,372.7l0,12.2c0,0.6-0.5,1.1-1.1,1.2l-8.3,0.5v11.7c0,0.2-0.1,0.4-0.4,0.6l-8.8,5.1
				c-0.3,0.2-0.7,0.2-1.1,0.2v0c-0.3,0-0.6,0-0.8-0.2l-8.9-4.1c-0.2-0.1-0.5-0.2-0.8-0.2v0c-0.4,0-0.9,0-1.2,0.1
				c-2.2,0.7-4.5,1.2-6.9,1.6c-0.2,0-0.4,0.1-0.5,0.2v0.1c-0.4,0.2-0.7,0.6-0.7,1l-1.1,5.9c-0.1,0.3-0.2,0.6-0.5,0.8v0
				c-0.2,0.2-0.5,0.3-0.8,0.3l-12.9,0c-0.1,0-0.2,0-0.2,0c-0.3-0.1-0.6-0.3-0.8-0.6v-0.1c-0.1-0.1-0.2-0.2-0.2-0.3l-1.1-5.9
				c-0.1-0.3-0.3-0.6-0.5-0.8v0c-0.2-0.2-0.5-0.3-0.8-0.4c-2.4-0.4-4.7-0.9-6.9-1.6c-0.4-0.1-0.9-0.1-1.4-0.1v0
				c-0.2,0-0.5,0.1-0.7,0.2l-8.9,4.1c-0.1,0.1-0.3,0.1-0.5,0.1v0.1h0c-0.5,0.1-1,0-1.4-0.2c0,0,0,0,0,0l-8.8-5.1
				c-0.1,0-0.1-0.1-0.2-0.1c-0.1-0.1-0.1-0.1-0.1-0.2c0-0.1-0.1-0.2-0.1-0.3c0,0,0,0,0,0l0-2.8v-2.2l0-6.7l-1.5-0.1l-6.6-0.4l-0.1,0
				c0,0,0,0,0,0c-0.6,0-1.1-0.5-1.1-1.1v-11.1c0,0.6,0.5,1.1,1.1,1.2l11.7,0.7c0.6,0,1.3,0.5,1.6,1c0.6,1.2,1.5,2.3,2.5,3.4
				c0.4,0.4,0.4,1.1-0.1,1.4l-6.9,5c-0.5,0.4-0.5,0.9,0.1,1.2l8.8,5.1c0.5,0.3,1.4,0.3,1.9,0.1l8.9-4.1c0.6-0.3,1.5-0.3,2-0.1
				c2.2,0.7,4.5,1.2,6.9,1.6c0.6,0.1,1.2,0.7,1.3,1.2l1.1,5.9c0.1,0.6,0.7,1.1,1.3,1.1h12.9c0.6,0,1.2-0.5,1.3-1.1l1.1-5.9
				c0.1-0.6,0.7-1.1,1.3-1.2c2.4-0.4,4.7-1,6.9-1.6c0.6-0.2,1.5-0.1,2,0.1l8.9,4.1c0.5,0.3,1.4,0.2,1.9-0.1l8.8-5.1
				c0.5-0.3,0.5-0.8,0.1-1.2l-6.9-5c-0.5-0.3-0.5-1-0.1-1.4c1-1.1,1.8-2.3,2.5-3.4c0.3-0.5,1-1,1.6-1l11.7-0.7
				c0.6,0,1.1-0.6,1.1-1.2v-1.3C304.3,372.5,304.3,372.6,304.3,372.7z"/>
			<path class="st6" d="M294.9,353.9v11.7l-3.4-0.2c-0.6,0-1.3-0.5-1.6-1c-0.6-1.2-1.5-2.3-2.5-3.4c-0.4-0.4-0.4-1.1,0.1-1.4l6.9-5
				C294.8,354.3,294.9,354.1,294.9,353.9L294.9,353.9z"/>
			<path class="st6" d="M224.2,360.8c-1,1.1-1.8,2.3-2.5,3.4c-0.3,0.5-1,1-1.6,1l-3.4,0.2l0-11.7c0,0.2,0.1,0.4,0.4,0.6l6.9,5
				C224.6,359.8,224.6,360.4,224.2,360.8z"/>
			<path id="XMLID_6123_" class="st8" d="M226,348.2l-8.8,5.1c-0.5,0.3-0.5,0.8-0.1,1.2l6.9,5c0.5,0.4,0.5,1,0.1,1.4
				c-1,1.1-1.8,2.3-2.5,3.4c-0.3,0.5-1,1-1.6,1l-11.7,0.7c-0.6,0-1.1,0.6-1.1,1.2v6.5c0,0.6,0.5,1.1,1.1,1.2l11.7,0.7
				c0.6,0,1.3,0.5,1.6,1c0.6,1.2,1.5,2.3,2.5,3.4c0.4,0.4,0.4,1.1-0.1,1.4l-6.9,5c-0.5,0.4-0.5,0.9,0.1,1.2l8.8,5.1
				c0.5,0.3,1.4,0.3,1.9,0.1l8.9-4.1c0.5-0.3,1.5-0.3,2-0.1c2.2,0.7,4.5,1.2,6.9,1.6c0.6,0.1,1.2,0.7,1.3,1.2l1.1,5.9
				c0.1,0.6,0.7,1.1,1.3,1.1l12.9,0c0.6,0,1.2-0.5,1.3-1.1l1.1-5.9c0.1-0.6,0.7-1.1,1.3-1.2c2.4-0.4,4.7-0.9,6.9-1.6
				c0.6-0.2,1.5-0.1,2,0.1l8.9,4.1c0.5,0.3,1.4,0.2,1.9-0.1l8.8-5.1c0.5-0.3,0.5-0.8,0.1-1.2l-6.9-5c-0.5-0.4-0.5-1-0.1-1.4
				c1-1.1,1.8-2.3,2.5-3.4c0.3-0.5,1-1,1.6-1l11.7-0.7c0.6,0,1.1-0.6,1.1-1.2l0-6.5c0-0.6-0.5-1.1-1.1-1.2l-11.7-0.7
				c-0.6,0-1.3-0.5-1.6-1c-0.6-1.2-1.5-2.3-2.5-3.4c-0.4-0.4-0.4-1.1,0.1-1.4l6.9-5c0.5-0.4,0.5-0.9-0.1-1.2l-8.8-5.1
				c-0.5-0.3-1.4-0.3-1.9-0.1l-8.9,4.1c-0.5,0.3-1.5,0.3-2,0.1c-2.2-0.7-4.5-1.2-6.9-1.6c-0.6-0.1-1.2-0.7-1.3-1.2l-1.1-5.9
				c-0.1-0.6-0.7-1.1-1.3-1.1l-12.9,0c-0.6,0-1.2,0.5-1.3,1.1l-1.1,5.9c-0.1,0.6-0.7,1.1-1.3,1.2c-2.4,0.4-4.7,0.9-6.9,1.6
				c-0.6,0.2-1.5,0.1-2-0.1l-8.9-4.1C227.4,347.8,226.5,347.9,226,348.2z M270.7,361.9c8.2,4.7,8.2,12.4,0,17.1
				c-8.2,4.7-21.4,4.7-29.6,0c-8.2-4.7-8.2-12.4,0-17.1C249.2,357.2,262.5,357.2,270.7,361.9z"/>
			<path class="st7" d="M216.8,387.1c0-0.2,0.1-0.4,0.4-0.6l3.5-2.5v-8.3c-0.2-0.1-0.3-0.1-0.5-0.1l-11.7-0.7
				c-0.6,0-1.1-0.6-1.1-1.2v11.1c0,0.6,0.5,1.1,1.1,1.1c0,0,0,0,0,0l0.1,0l6.6,0.4l1.5,0.1C216.8,386.5,216.8,387.4,216.8,387.1z"/>
			<path class="st7" d="M237.5,388.6c-0.2,0-0.5,0.1-0.7,0.2l-8.9,4.1c-0.3,0.1-0.7,0.2-1.1,0.1v11.1c0.2,0,0.4,0,0.6,0h0v-0.1
				c0.2,0,0.4,0,0.5-0.1l8.9-4.1c0.2-0.1,0.4-0.1,0.7-0.2V388.6z"/>
			<path class="st7" d="M248.3,397.8c-0.1-0.1-0.1-0.3-0.2-0.4l-1.1-5.9c0-0.2-0.1-0.3-0.2-0.4v11.1c0.1,0.1,0.1,0.3,0.2,0.4
				l1.1,5.9c0,0.1,0.1,0.2,0.2,0.3V397.8z"/>
			<path class="st5" d="M264.9,391.1c-0.1,0.1-0.1,0.3-0.2,0.4l-1.1,5.9c0,0.1-0.1,0.3-0.2,0.4v11.1c0.1-0.1,0.1-0.3,0.2-0.4
				l1.1-5.9c0-0.1,0.1-0.3,0.2-0.4V391.1z"/>
			<path class="st5" d="M284.9,393c-0.4,0-0.8,0-1.1-0.1l-8.9-4.1c-0.2-0.1-0.4-0.1-0.7-0.2v11.1c0.2,0,0.5,0.1,0.7,0.2l8.9,4.1
				c0.2,0.1,0.5,0.2,0.8,0.2v0c0.1,0,0.2,0,0.3,0V393z"/>
			<path class="st5" d="M303.2,374.9l-11.7,0.7c-0.2,0-0.3,0.1-0.5,0.1v8.3l3.5,2.5c0.2,0.2,0.3,0.4,0.3,0.6c0,0.2,0-0.6,0-0.6
				l8.3-0.5c0.6,0,1.1-0.6,1.1-1.2l0-12.2c0-0.1,0-0.2,0-0.2v1.3C304.3,374.4,303.8,374.9,303.2,374.9z"/>
		</g>
		<g>
			<path class="st7" d="M138.2,329c0,0.5,0,9.7,0,9.9c0,0.1,0,0.2,0.1,0.2l3.9,5.4c0.2,0.3,0.9,0.5,1.4,0.4l9-1.5
				c0.6-0.1,1.3,0,1.6,0.3c0.7,0.5,1.4,1,2.2,1.4c0,0,0,7.3,0,7.5c0,0.3,0.2,0.5,0.5,0.5l9.8,2.3c0.5,0.1,1.2-0.2,1.6-0.6l4-4.2
				c0.4-0.4,1.1-0.7,1.7-0.7c2,0.1,4.1,0.1,6.1,0c0.5,0,1.2,0.2,1.5,0.5l4.5,4.7c0.3,0.3,1,0.4,1.5,0.3l9.4-2.3
				c0.5-0.1,0.8-0.4,0.7-0.7l0-7.4c0.6-0.4,1.3-0.8,1.8-1.2c0.5-0.3,1.3-0.6,1.8-0.5l9.3,1.6c0.5,0.1,1.1-0.2,1.5-0.7l3.6-5
				c0.1-0.2,0.2-0.4,0.2-0.6c0-0.2,0-3.1,0-7.1c0-0.1,0.1-0.2,0.1-0.2c0-0.1,0-13.3,0-14.1c0,0,0,0,0,0c0-0.1,0-0.2-0.1-0.2
				l-3.9-5.4c-0.2-0.3-0.9-0.5-1.4-0.4l-9,1.5c-0.6,0.1-1.3,0-1.6-0.3c-0.7-0.5-1.4-1-2.2-1.4c0-3.4,0-6.9,0-7.3c0,0,0,0,0,0
				c0-0.3-0.2-0.6-0.5-0.6l-9.8-2.3c-0.5-0.1-1.2,0.1-1.6,0.6l-4,4.2c-0.4,0.4-1.1,0.8-1.7,0.7c-2-0.1-4.1-0.1-6.1,0
				c-0.5,0-1.2-0.2-1.5-0.5L168,301c-0.3-0.3-1-0.4-1.5-0.3l-9.4,2.3c-0.5,0.1-0.7,0.4-0.7,0.7l0,0l0,7.4c-0.6,0.4-1.3,0.8-1.8,1.2
				c-0.5,0.3-1.3,0.6-1.8,0.5l-9.3-1.6c-0.5-0.1-1.1,0.2-1.5,0.7l-3.6,5c-0.1,0.2-0.2,0.4-0.2,0.5c0,0,0,0,0,0c0,0.4,0,7.4,0,11.4
				l0,0C138.2,328.8,138.2,328.9,138.2,329L138.2,329L138.2,329C138.2,329,138.2,329,138.2,329C138.2,329,138.2,329,138.2,329z
				 M189.2,330.2c-1.5,0.9-3.4,1.6-5.5,2.1c-6.6,1.6-13.9,0.6-18.7-2.1c-0.5-0.3-1-0.6-1.5-1c0.4-0.3,0.9-0.6,1.4-0.9
				c6.7-3.9,17.6-3.9,24.4,0c0.5,0.3,1,0.6,1.4,0.9C190.2,329.6,189.7,329.9,189.2,330.2z"/>
			<path class="st6" d="M195.6,309.9c0.7,0.3,1.5,0.7,2.2,1.1c0-3.4,0-6.9,0-7.3c0,0.1,0,0.2-0.1,0.4l-2.3,4.6
				C195,309.2,195.2,309.8,195.6,309.9z"/>
			<path class="st5" d="M206.4,321.6c0.2,1,0.2,2.1,0,3.1c-0.1,0.5,0.2,0.9,0.6,1.1l8.5,2.7c0.3,0.1,0.4,0.3,0.4,0.5
				c0,0.2,0,2.8,0,2.8c0-0.1,0.1-0.1,0.1-0.2c0-4.8,0-12.9,0-13.6v-0.6c0,0.3-0.3,0.5-0.7,0.6l-8,2.5
				C206.7,320.7,206.3,321.2,206.4,321.6z"/>
			<path class="st5" d="M201.1,333.5v9.9c0.1,0,0.2,0,0.3,0l9.3,1.6c0.1,0,0.3,0,0.5,0v-9.9c-0.2,0-0.3,0.1-0.5,0l-9.3-1.6
				C201.3,333.5,201.2,333.5,201.1,333.5z"/>
			<path class="st6" d="M197.8,345.2c0.6-0.4,1.3-0.8,1.8-1.2c0.4-0.3,1-0.5,1.4-0.5v-9.9c-0.5,0-1,0.2-1.4,0.5
				c-1.1,0.8-2.4,1.5-3.8,2.2c-0.6,0.3-0.9,0.7-0.7,1.1l2.6,5.1c0,0.1,0.1,0.1,0.1,0.2C197.8,342.9,197.8,345.2,197.8,345.2z"/>
			<path class="st5" d="M181,340.2v9.9c0.2,0.1,0.4,0.2,0.6,0.3l4.5,4.7c0.2,0.2,0.5,0.3,0.8,0.3v-9.9c-0.4,0-0.7-0.1-0.8-0.3
				l-4.5-4.7C181.5,340.4,181.3,340.3,181,340.2z"/>
			<path class="st6" d="M173.4,340.1v9.9c0.2-0.1,0.4-0.1,0.6-0.1c2,0.1,4.1,0.1,6.1,0c0.3,0,0.6,0,0.9,0.1v-9.9
				c-0.3-0.1-0.6-0.2-0.9-0.1c-2.1,0.1-4.1,0.1-6.1,0C173.8,340,173.6,340.1,173.4,340.1z"/>
			<path class="st5" d="M167.4,345.5v9.9c0.3-0.1,0.7-0.3,0.9-0.5l4-4.2c0.3-0.3,0.7-0.5,1.1-0.6v-9.9c-0.4,0.1-0.8,0.3-1.1,0.6
				l-4,4.2C168,345.2,167.7,345.4,167.4,345.5z"/>
			<path class="st7" d="M156.4,342.7v2.5c0,0,0,0,0,0s0,1.2,0,2.6v1.3c0,1.8,0,3.5,0,3.6c0,0.3,0.2,0.5,0.5,0.5l9.8,2.3
				c0.2,0.1,0.4,0,0.7-0.1v-9.9c-0.3,0.1-0.5,0.1-0.7,0.1l-9.8-2.3C156.6,343.2,156.4,343,156.4,342.7z"/>
			<path class="st5" d="M153.3,333.6v9.9c0.4,0,0.8,0.1,1,0.3c0.7,0.5,1.4,0.9,2.2,1.4c0,0,0-2.3,0-2.6c0-0.1,0-0.3,0.1-0.4l2.4-4.7
				c0.2-0.5,0.1-1-0.3-1.2c-1.6-0.7-3.1-1.6-4.4-2.5C154,333.7,153.6,333.6,153.3,333.6z"/>
			<path class="st7" d="M138.2,329c0,0.5,0,9.7,0,9.9c0,0.1,0,0.2,0.1,0.2l3.9,5.4c0.1,0.2,0.4,0.3,0.7,0.4v-9.9
				c-0.3-0.1-0.6-0.2-0.7-0.4l-3.9-5.4C138.2,329.2,138.2,329.1,138.2,329z"/>
			<g id="XMLID_6104_">
				<path id="XMLID_6107_" class="st8" d="M197.2,303.1l-9.8-2.3c-0.5-0.1-1.2,0.1-1.6,0.6l-4,4.2c-0.4,0.4-1.1,0.8-1.7,0.7
					c-2-0.1-4.1-0.1-6.1,0c-0.5,0-1.2-0.2-1.5-0.5L168,301c-0.3-0.3-1-0.4-1.5-0.3l-9.4,2.3c-0.5,0.1-0.7,0.4-0.7,0.7
					c0,0.1,0,0.1,0,0.2l2.6,5.1c0.2,0.4-0.1,0.8-0.7,1.1c-0.7,0.3-1.3,0.7-1.9,1c-0.6,0.4-1.3,0.8-1.8,1.2c-0.5,0.3-1.3,0.6-1.8,0.5
					l-9.3-1.6c-0.5-0.1-1.1,0.2-1.5,0.7l-3.6,5c-0.1,0.2-0.2,0.4-0.2,0.5c0,0,0,0,0,0c0,0.2,0.1,0.4,0.4,0.5l8.5,2.7
					c0.4,0.1,0.7,0.6,0.6,1.1c-0.2,1-0.2,2,0,3.1c0.1,0.4-0.3,0.9-0.9,1.1l-8,2.5c-0.3,0.1-0.5,0.3-0.6,0.4l0,0
					c0,0.1-0.1,0.1-0.1,0.2c0,0,0,0,0,0c0,0,0,0,0,0c0,0.1,0,0.2,0.1,0.2l3.9,5.4c0.2,0.3,0.9,0.5,1.4,0.4l9-1.5
					c0.6-0.1,1.3,0,1.6,0.3c1.3,0.9,2.8,1.8,4.3,2.5c0.4,0.2,0.5,0.7,0.3,1.2l-2.3,4.7c-0.2,0.5-0.1,0.9,0.4,1l9.8,2.3
					c0.5,0.1,1.2-0.2,1.6-0.6l4-4.2c0.4-0.4,1.1-0.7,1.7-0.7c2,0.1,4.1,0.1,6.1,0c0.5,0,1.2,0.2,1.5,0.5l4.5,4.7
					c0.3,0.3,1,0.4,1.5,0.3l9.4-2.2c0.6-0.1,0.9-0.5,0.7-0.9l-2.6-5.1c-0.2-0.4,0.1-0.8,0.7-1.1c1.4-0.7,2.6-1.4,3.8-2.2
					c0.5-0.4,1.3-0.6,1.8-0.5l9.3,1.6c0.5,0.1,1.1-0.2,1.5-0.7l3.6-4.9c0.1-0.2,0.2-0.4,0.2-0.5c0-0.3-0.1-0.5-0.4-0.5l-8.5-2.7
					c-0.4-0.1-0.7-0.6-0.6-1.1c0.2-1,0.2-2,0-3.1c-0.1-0.4,0.3-0.9,0.9-1.1l8-2.5c0.4-0.1,0.7-0.4,0.7-0.6c0,0,0,0,0,0
					c0-0.1,0-0.2-0.1-0.2l-3.9-5.4c-0.2-0.3-0.9-0.5-1.4-0.4l-9,1.5c-0.6,0.1-1.3,0-1.6-0.3c-0.7-0.5-1.4-1-2.2-1.4
					c-0.7-0.4-1.4-0.8-2.2-1.1c-0.4-0.2-0.5-0.7-0.3-1.2l2.3-4.7c0.1-0.1,0.1-0.3,0.1-0.4c0,0,0,0,0,0
					C197.7,303.4,197.5,303.1,197.2,303.1z M170.5,314c8.8-2.1,18.9,0.3,22.5,5.4c1.4,2,1.7,4.1,0.9,6c0,0.1-0.1,0.1-0.1,0.2
					c0,0.1-0.1,0.1-0.1,0.2c0,0.1-0.1,0.1-0.1,0.2c0,0,0,0,0,0c-0.6,1.2-1.6,2.3-2.9,3.3c-0.4,0.3-0.9,0.6-1.4,0.9
					c-1.5,0.9-3.4,1.6-5.5,2.1c-6.6,1.6-13.9,0.6-18.7-2.1c-0.5-0.3-1-0.6-1.5-1c-0.9-0.7-1.7-1.5-2.3-2.3c-1.6-2.3-1.7-4.7-0.5-6.9
					c0-0.1,0.1-0.1,0.1-0.2c0.1-0.1,0.1-0.2,0.2-0.3c0.1-0.2,0.2-0.3,0.4-0.5c0.1-0.1,0.2-0.3,0.3-0.4c0.1-0.1,0.1-0.1,0.2-0.2
					c0.1-0.1,0.2-0.2,0.2-0.2C163.9,316.4,166.8,314.8,170.5,314z"/>
			</g>
		</g>
		<g>
			<path class="st7" d="M120.3,389.2c0,0.5,0,9.7,0,9.9c0,0.1,0,0.2,0.1,0.2l3.9,5.4c0.2,0.3,0.9,0.5,1.4,0.4l9-1.5
				c0.6-0.1,1.3,0,1.6,0.3c0.7,0.5,1.4,1,2.2,1.4c0,0,0,7.3,0,7.5c0,0.3,0.2,0.5,0.5,0.5l9.8,2.3c0.5,0.1,1.2-0.2,1.6-0.6l4-4.2
				c0.4-0.4,1.1-0.7,1.7-0.7c2,0.1,4.1,0.1,6.1,0c0.5,0,1.2,0.2,1.5,0.5l4.5,4.7c0.3,0.3,1,0.4,1.5,0.3l9.4-2.3
				c0.5-0.1,0.8-0.4,0.7-0.7l0-7.4c0.6-0.4,1.3-0.8,1.8-1.2c0.5-0.3,1.3-0.6,1.8-0.5l9.3,1.6c0.5,0.1,1.1-0.2,1.5-0.7l3.6-5
				c0.1-0.2,0.2-0.4,0.2-0.6c0-0.2,0-3.1,0-7.1c0-0.1,0.1-0.2,0.1-0.2c0-0.1,0-13.3,0-14.1c0,0,0,0,0,0c0-0.1,0-0.2-0.1-0.2
				l-3.9-5.4c-0.2-0.3-0.9-0.5-1.4-0.4l-9,1.5c-0.6,0.1-1.3,0-1.6-0.3c-0.7-0.5-1.4-1-2.2-1.4c0-3.4,0-6.9,0-7.3c0,0,0,0,0,0
				c0-0.3-0.2-0.6-0.5-0.6l-9.8-2.3c-0.5-0.1-1.2,0.1-1.6,0.6l-4,4.2c-0.4,0.4-1.1,0.8-1.7,0.7c-2-0.1-4.1-0.1-6.1,0
				c-0.5,0-1.2-0.2-1.5-0.5l-4.5-4.7c-0.3-0.3-1-0.4-1.5-0.3l-9.4,2.3c-0.5,0.1-0.7,0.4-0.7,0.7l0,0l0,7.4c-0.6,0.4-1.3,0.8-1.8,1.2
				c-0.5,0.3-1.3,0.6-1.8,0.5l-9.3-1.6c-0.5-0.1-1.1,0.2-1.5,0.7l-3.6,5c-0.1,0.2-0.2,0.4-0.2,0.5c0,0,0,0,0,0c0,0.4,0,7.4,0,11.4
				l0,0C120.3,389,120.3,389.1,120.3,389.2L120.3,389.2L120.3,389.2C120.3,389.2,120.3,389.2,120.3,389.2
				C120.3,389.2,120.3,389.2,120.3,389.2z M171.3,390.4c-1.5,0.9-3.4,1.6-5.5,2.1c-6.6,1.6-13.9,0.6-18.7-2.1c-0.5-0.3-1-0.6-1.5-1
				c0.4-0.3,0.9-0.6,1.4-0.9c6.7-3.9,17.6-3.9,24.4,0c0.5,0.3,1,0.6,1.4,0.9C172.3,389.8,171.8,390.1,171.3,390.4z"/>
			<path class="st6" d="M177.7,370.1c0.7,0.3,1.5,0.7,2.2,1.1c0-3.4,0-6.9,0-7.3c0,0.1,0,0.2-0.1,0.4l-2.3,4.6
				C177.2,369.4,177.3,369.9,177.7,370.1z"/>
			<path class="st5" d="M188.5,381.7c0.2,1,0.2,2.1,0,3.1c-0.1,0.5,0.2,0.9,0.6,1.1l8.5,2.7c0.3,0.1,0.4,0.3,0.4,0.5
				c0,0.2,0,2.8,0,2.8c0-0.1,0.1-0.1,0.1-0.2c0-4.8,0-12.9,0-13.6v-0.6c0,0.3-0.3,0.5-0.7,0.6l-8,2.5
				C188.8,380.9,188.4,381.3,188.5,381.7z"/>
			<path class="st5" d="M183.2,393.7v9.9c0.1,0,0.2,0,0.3,0l9.3,1.6c0.1,0,0.3,0,0.5,0v-9.9c-0.2,0-0.3,0.1-0.5,0l-9.3-1.6
				C183.4,393.7,183.3,393.7,183.2,393.7z"/>
			<path class="st6" d="M179.9,405.3c0.6-0.4,1.3-0.8,1.8-1.2c0.4-0.3,1-0.5,1.4-0.5v-9.9c-0.5,0-1,0.2-1.4,0.5
				c-1.1,0.8-2.4,1.5-3.8,2.2c-0.6,0.3-0.9,0.7-0.7,1.1l2.6,5.1c0,0.1,0.1,0.1,0.1,0.2C179.9,403.1,179.9,405.3,179.9,405.3z"/>
			<path class="st5" d="M163.2,400.4v9.9c0.2,0.1,0.4,0.2,0.6,0.3l4.5,4.7c0.2,0.2,0.5,0.3,0.8,0.3v-9.9c-0.4,0-0.7-0.1-0.8-0.3
				l-4.5-4.7C163.6,400.6,163.4,400.4,163.2,400.4z"/>
			<path class="st6" d="M155.5,400.3v9.9c0.2-0.1,0.4-0.1,0.6-0.1c2,0.1,4.1,0.1,6.1,0c0.3,0,0.6,0,0.9,0.1v-9.9
				c-0.3-0.1-0.6-0.2-0.9-0.1c-2.1,0.1-4.1,0.1-6.1,0C155.9,400.2,155.7,400.2,155.5,400.3z"/>
			<path class="st5" d="M149.5,405.7v9.9c0.3-0.1,0.7-0.3,0.9-0.5l4-4.2c0.3-0.3,0.7-0.5,1.1-0.6v-9.9c-0.4,0.1-0.8,0.3-1.1,0.6
				l-4,4.2C150.2,405.4,149.8,405.6,149.5,405.7z"/>
			<path class="st7" d="M138.5,402.9v2.5c0,0,0,0,0,0s0,1.2,0,2.6v1.3c0,1.8,0,3.5,0,3.6c0,0.3,0.2,0.5,0.5,0.5l9.8,2.3
				c0.2,0.1,0.4,0,0.7-0.1v-9.9c-0.3,0.1-0.5,0.1-0.7,0.1l-9.8-2.3C138.7,403.3,138.6,403.1,138.5,402.9z"/>
			<path class="st5" d="M135.4,393.7v9.9c0.4,0,0.8,0.1,1,0.3c0.7,0.5,1.4,0.9,2.2,1.4c0,0,0-2.3,0-2.6c0-0.1,0-0.3,0.1-0.4l2.4-4.7
				c0.2-0.5,0.1-1-0.3-1.2c-1.6-0.7-3.1-1.6-4.4-2.5C136.1,393.9,135.8,393.8,135.4,393.7z"/>
			<path class="st7" d="M120.3,389.2c0,0.5,0,9.7,0,9.9c0,0.1,0,0.2,0.1,0.2l3.9,5.4c0.1,0.2,0.4,0.3,0.7,0.4v-9.9
				c-0.3-0.1-0.6-0.2-0.7-0.4l-3.9-5.4C120.3,389.3,120.3,389.3,120.3,389.2z"/>
			<g id="XMLID_6093_">
				<path id="XMLID_6094_" class="st8" d="M179.3,363.2l-9.8-2.3c-0.5-0.1-1.2,0.1-1.6,0.6l-4,4.2c-0.4,0.4-1.1,0.8-1.7,0.7
					c-2-0.1-4.1-0.1-6.1,0c-0.5,0-1.2-0.2-1.5-0.5l-4.5-4.7c-0.3-0.3-1-0.4-1.5-0.3l-9.4,2.3c-0.5,0.1-0.7,0.4-0.7,0.7
					c0,0.1,0,0.1,0,0.2l2.6,5.1c0.2,0.4-0.1,0.8-0.7,1.1c-0.7,0.3-1.3,0.7-1.9,1c-0.6,0.4-1.3,0.8-1.8,1.2c-0.5,0.3-1.3,0.6-1.8,0.5
					l-9.3-1.6c-0.5-0.1-1.1,0.2-1.5,0.7l-3.6,5c-0.1,0.2-0.2,0.4-0.2,0.5c0,0,0,0,0,0c0,0.2,0.1,0.4,0.4,0.5l8.5,2.7
					c0.4,0.1,0.7,0.6,0.6,1.1c-0.2,1-0.2,2,0,3.1c0.1,0.4-0.3,0.9-0.9,1.1l-8,2.5c-0.3,0.1-0.5,0.3-0.6,0.4l0,0
					c0,0.1-0.1,0.1-0.1,0.2c0,0,0,0,0,0c0,0,0,0,0,0c0,0.1,0,0.2,0.1,0.2l3.9,5.4c0.2,0.3,0.9,0.5,1.4,0.4l9-1.5
					c0.6-0.1,1.3,0,1.6,0.3c1.3,0.9,2.8,1.8,4.3,2.5c0.4,0.2,0.5,0.7,0.3,1.2l-2.3,4.7c-0.2,0.5-0.1,0.9,0.4,1l9.8,2.3
					c0.5,0.1,1.2-0.2,1.6-0.6l4-4.2c0.4-0.4,1.1-0.7,1.7-0.7c2,0.1,4.1,0.1,6.1,0c0.5,0,1.2,0.2,1.5,0.5l4.5,4.7
					c0.3,0.3,1,0.4,1.5,0.3l9.4-2.2c0.6-0.1,0.9-0.5,0.7-0.9l-2.6-5.1c-0.2-0.4,0.1-0.8,0.7-1.1c1.4-0.7,2.6-1.4,3.8-2.2
					c0.5-0.4,1.3-0.6,1.8-0.5l9.3,1.6c0.5,0.1,1.1-0.2,1.5-0.7l3.6-4.9c0.1-0.2,0.2-0.4,0.2-0.5c0-0.3-0.1-0.5-0.4-0.5l-8.5-2.7
					c-0.4-0.1-0.7-0.6-0.6-1.1c0.2-1,0.2-2,0-3.1c-0.1-0.4,0.3-0.9,0.9-1.1l8-2.5c0.4-0.1,0.7-0.4,0.7-0.6c0,0,0,0,0,0
					c0-0.1,0-0.2-0.1-0.2l-3.9-5.4c-0.2-0.3-0.9-0.5-1.4-0.4l-9,1.5c-0.6,0.1-1.3,0-1.6-0.3c-0.7-0.5-1.4-1-2.2-1.4
					c-0.7-0.4-1.4-0.8-2.2-1.1c-0.4-0.2-0.5-0.7-0.3-1.2l2.3-4.7c0.1-0.1,0.1-0.3,0.1-0.4c0,0,0,0,0,0
					C179.9,363.6,179.7,363.3,179.3,363.2z M152.6,374.1c8.8-2.1,18.9,0.3,22.5,5.4c1.4,2,1.7,4.1,0.9,6c0,0.1-0.1,0.1-0.1,0.2
					c0,0.1-0.1,0.1-0.1,0.2c0,0.1-0.1,0.1-0.1,0.2c0,0,0,0,0,0c-0.6,1.2-1.6,2.3-2.9,3.3c-0.4,0.3-0.9,0.6-1.4,0.9
					c-1.5,0.9-3.4,1.6-5.5,2.1c-6.6,1.6-13.9,0.6-18.7-2.1c-0.5-0.3-1-0.6-1.5-1c-0.9-0.7-1.7-1.5-2.3-2.3c-1.6-2.3-1.7-4.7-0.5-6.9
					c0-0.1,0.1-0.1,0.1-0.2c0.1-0.1,0.1-0.2,0.2-0.3c0.1-0.2,0.2-0.3,0.4-0.5c0.1-0.1,0.2-0.3,0.3-0.4c0.1-0.1,0.1-0.1,0.2-0.2
					c0.1-0.1,0.2-0.2,0.2-0.2C146,376.5,148.9,375,152.6,374.1z"/>
			</g>
		</g>
	</g>
</g>
</svg>
